<?xml version="1.0" encoding="utf-8" standalone="no"?>
<!DOCTYPE svg PUBLIC "-//W3C//DTD SVG 1.1//EN"
  "http://www.w3.org/Graphics/SVG/1.1/DTD/svg11.dtd">
<svg xmlns:xlink="http://www.w3.org/1999/xlink" width="460.8pt" height="345.6pt" viewBox="0 0 460.8 345.6" xmlns="http://www.w3.org/2000/svg" version="1.1">
 <metadata>
  <rdf:RDF xmlns:dc="http://purl.org/dc/elements/1.1/" xmlns:cc="http://creativecommons.org/ns#" xmlns:rdf="http://www.w3.org/1999/02/22-rdf-syntax-ns#">
   <cc:Work>
    <dc:type rdf:resource="http://purl.org/dc/dcmitype/StillImage"/>
    <dc:date>2024-10-27T02:06:44.619088</dc:date>
    <dc:format>image/svg+xml</dc:format>
    <dc:creator>
     <cc:Agent>
      <dc:title>Matplotlib v3.8.4, https://matplotlib.org/</dc:title>
     </cc:Agent>
    </dc:creator>
   </cc:Work>
  </rdf:RDF>
 </metadata>
 <defs>
  <style type="text/css">*{stroke-linejoin: round; stroke-linecap: butt}</style>
 </defs>
 <g id="figure_1">
  <g id="patch_1">
   <path d="M 0 345.6 
L 460.8 345.6 
L 460.8 0 
L 0 0 
z
" style="fill: #ffffff"/>
  </g>
  <g id="axes_1">
   <g id="patch_2">
    <path d="M 57.6 307.584 
L 414.72 307.584 
L 414.72 41.472 
L 57.6 41.472 
z
" style="fill: #eaeaf2"/>
   </g>
   <g id="matplotlib.axis_1">
    <g id="xtick_1">
     <g id="line2d_1">
      <path d="M 85.427532 307.584 
L 85.427532 41.472 
" clip-path="url(#pc63ef13067)" style="fill: none; stroke: #ffffff; stroke-linecap: round"/>
     </g>
     <g id="text_1">
      <!-- 20 -->
      <g style="fill: #262626" transform="translate(78.428782 325.442281) scale(0.11 -0.11)">
       <defs>
        <path id="DejaVuSans-32" d="M 1228 531 
L 3431 531 
L 3431 0 
L 469 0 
L 469 531 
Q 828 903 1448 1529 
Q 2069 2156 2228 2338 
Q 2531 2678 2651 2914 
Q 2772 3150 2772 3378 
Q 2772 3750 2511 3984 
Q 2250 4219 1831 4219 
Q 1534 4219 1204 4116 
Q 875 4013 500 3803 
L 500 4441 
Q 881 4594 1212 4672 
Q 1544 4750 1819 4750 
Q 2544 4750 2975 4387 
Q 3406 4025 3406 3419 
Q 3406 3131 3298 2873 
Q 3191 2616 2906 2266 
Q 2828 2175 2409 1742 
Q 1991 1309 1228 531 
z
" transform="scale(0.015625)"/>
        <path id="DejaVuSans-30" d="M 2034 4250 
Q 1547 4250 1301 3770 
Q 1056 3291 1056 2328 
Q 1056 1369 1301 889 
Q 1547 409 2034 409 
Q 2525 409 2770 889 
Q 3016 1369 3016 2328 
Q 3016 3291 2770 3770 
Q 2525 4250 2034 4250 
z
M 2034 4750 
Q 2819 4750 3233 4129 
Q 3647 3509 3647 2328 
Q 3647 1150 3233 529 
Q 2819 -91 2034 -91 
Q 1250 -91 836 529 
Q 422 1150 422 2328 
Q 422 3509 836 4129 
Q 1250 4750 2034 4750 
z
" transform="scale(0.015625)"/>
       </defs>
       <use xlink:href="#DejaVuSans-32"/>
       <use xlink:href="#DejaVuSans-30" x="63.623047"/>
      </g>
     </g>
    </g>
    <g id="xtick_2">
     <g id="line2d_2">
      <path d="M 143.401558 307.584 
L 143.401558 41.472 
" clip-path="url(#pc63ef13067)" style="fill: none; stroke: #ffffff; stroke-linecap: round"/>
     </g>
     <g id="text_2">
      <!-- 40 -->
      <g style="fill: #262626" transform="translate(136.402808 325.442281) scale(0.11 -0.11)">
       <defs>
        <path id="DejaVuSans-34" d="M 2419 4116 
L 825 1625 
L 2419 1625 
L 2419 4116 
z
M 2253 4666 
L 3047 4666 
L 3047 1625 
L 3713 1625 
L 3713 1100 
L 3047 1100 
L 3047 0 
L 2419 0 
L 2419 1100 
L 313 1100 
L 313 1709 
L 2253 4666 
z
" transform="scale(0.015625)"/>
       </defs>
       <use xlink:href="#DejaVuSans-34"/>
       <use xlink:href="#DejaVuSans-30" x="63.623047"/>
      </g>
     </g>
    </g>
    <g id="xtick_3">
     <g id="line2d_3">
      <path d="M 201.375584 307.584 
L 201.375584 41.472 
" clip-path="url(#pc63ef13067)" style="fill: none; stroke: #ffffff; stroke-linecap: round"/>
     </g>
     <g id="text_3">
      <!-- 60 -->
      <g style="fill: #262626" transform="translate(194.376834 325.442281) scale(0.11 -0.11)">
       <defs>
        <path id="DejaVuSans-36" d="M 2113 2584 
Q 1688 2584 1439 2293 
Q 1191 2003 1191 1497 
Q 1191 994 1439 701 
Q 1688 409 2113 409 
Q 2538 409 2786 701 
Q 3034 994 3034 1497 
Q 3034 2003 2786 2293 
Q 2538 2584 2113 2584 
z
M 3366 4563 
L 3366 3988 
Q 3128 4100 2886 4159 
Q 2644 4219 2406 4219 
Q 1781 4219 1451 3797 
Q 1122 3375 1075 2522 
Q 1259 2794 1537 2939 
Q 1816 3084 2150 3084 
Q 2853 3084 3261 2657 
Q 3669 2231 3669 1497 
Q 3669 778 3244 343 
Q 2819 -91 2113 -91 
Q 1303 -91 875 529 
Q 447 1150 447 2328 
Q 447 3434 972 4092 
Q 1497 4750 2381 4750 
Q 2619 4750 2861 4703 
Q 3103 4656 3366 4563 
z
" transform="scale(0.015625)"/>
       </defs>
       <use xlink:href="#DejaVuSans-36"/>
       <use xlink:href="#DejaVuSans-30" x="63.623047"/>
      </g>
     </g>
    </g>
    <g id="xtick_4">
     <g id="line2d_4">
      <path d="M 259.34961 307.584 
L 259.34961 41.472 
" clip-path="url(#pc63ef13067)" style="fill: none; stroke: #ffffff; stroke-linecap: round"/>
     </g>
     <g id="text_4">
      <!-- 80 -->
      <g style="fill: #262626" transform="translate(252.35086 325.442281) scale(0.11 -0.11)">
       <defs>
        <path id="DejaVuSans-38" d="M 2034 2216 
Q 1584 2216 1326 1975 
Q 1069 1734 1069 1313 
Q 1069 891 1326 650 
Q 1584 409 2034 409 
Q 2484 409 2743 651 
Q 3003 894 3003 1313 
Q 3003 1734 2745 1975 
Q 2488 2216 2034 2216 
z
M 1403 2484 
Q 997 2584 770 2862 
Q 544 3141 544 3541 
Q 544 4100 942 4425 
Q 1341 4750 2034 4750 
Q 2731 4750 3128 4425 
Q 3525 4100 3525 3541 
Q 3525 3141 3298 2862 
Q 3072 2584 2669 2484 
Q 3125 2378 3379 2068 
Q 3634 1759 3634 1313 
Q 3634 634 3220 271 
Q 2806 -91 2034 -91 
Q 1263 -91 848 271 
Q 434 634 434 1313 
Q 434 1759 690 2068 
Q 947 2378 1403 2484 
z
M 1172 3481 
Q 1172 3119 1398 2916 
Q 1625 2713 2034 2713 
Q 2441 2713 2670 2916 
Q 2900 3119 2900 3481 
Q 2900 3844 2670 4047 
Q 2441 4250 2034 4250 
Q 1625 4250 1398 4047 
Q 1172 3844 1172 3481 
z
" transform="scale(0.015625)"/>
       </defs>
       <use xlink:href="#DejaVuSans-38"/>
       <use xlink:href="#DejaVuSans-30" x="63.623047"/>
      </g>
     </g>
    </g>
    <g id="xtick_5">
     <g id="line2d_5">
      <path d="M 317.323636 307.584 
L 317.323636 41.472 
" clip-path="url(#pc63ef13067)" style="fill: none; stroke: #ffffff; stroke-linecap: round"/>
     </g>
     <g id="text_5">
      <!-- 100 -->
      <g style="fill: #262626" transform="translate(306.825511 325.442281) scale(0.11 -0.11)">
       <defs>
        <path id="DejaVuSans-31" d="M 794 531 
L 1825 531 
L 1825 4091 
L 703 3866 
L 703 4441 
L 1819 4666 
L 2450 4666 
L 2450 531 
L 3481 531 
L 3481 0 
L 794 0 
L 794 531 
z
" transform="scale(0.015625)"/>
       </defs>
       <use xlink:href="#DejaVuSans-31"/>
       <use xlink:href="#DejaVuSans-30" x="63.623047"/>
       <use xlink:href="#DejaVuSans-30" x="127.246094"/>
      </g>
     </g>
    </g>
    <g id="xtick_6">
     <g id="line2d_6">
      <path d="M 375.297662 307.584 
L 375.297662 41.472 
" clip-path="url(#pc63ef13067)" style="fill: none; stroke: #ffffff; stroke-linecap: round"/>
     </g>
     <g id="text_6">
      <!-- 120 -->
      <g style="fill: #262626" transform="translate(364.799537 325.442281) scale(0.11 -0.11)">
       <use xlink:href="#DejaVuSans-31"/>
       <use xlink:href="#DejaVuSans-32" x="63.623047"/>
       <use xlink:href="#DejaVuSans-30" x="127.246094"/>
      </g>
     </g>
    </g>
    <g id="text_7">
     <!-- MATSIZE -->
     <g style="fill: #262626" transform="translate(210.19875 340.848062) scale(0.12 -0.12)">
      <defs>
       <path id="DejaVuSans-4d" d="M 628 4666 
L 1569 4666 
L 2759 1491 
L 3956 4666 
L 4897 4666 
L 4897 0 
L 4281 0 
L 4281 4097 
L 3078 897 
L 2444 897 
L 1241 4097 
L 1241 0 
L 628 0 
L 628 4666 
z
" transform="scale(0.015625)"/>
       <path id="DejaVuSans-41" d="M 2188 4044 
L 1331 1722 
L 3047 1722 
L 2188 4044 
z
M 1831 4666 
L 2547 4666 
L 4325 0 
L 3669 0 
L 3244 1197 
L 1141 1197 
L 716 0 
L 50 0 
L 1831 4666 
z
" transform="scale(0.015625)"/>
       <path id="DejaVuSans-54" d="M -19 4666 
L 3928 4666 
L 3928 4134 
L 2272 4134 
L 2272 0 
L 1638 0 
L 1638 4134 
L -19 4134 
L -19 4666 
z
" transform="scale(0.015625)"/>
       <path id="DejaVuSans-53" d="M 3425 4513 
L 3425 3897 
Q 3066 4069 2747 4153 
Q 2428 4238 2131 4238 
Q 1616 4238 1336 4038 
Q 1056 3838 1056 3469 
Q 1056 3159 1242 3001 
Q 1428 2844 1947 2747 
L 2328 2669 
Q 3034 2534 3370 2195 
Q 3706 1856 3706 1288 
Q 3706 609 3251 259 
Q 2797 -91 1919 -91 
Q 1588 -91 1214 -16 
Q 841 59 441 206 
L 441 856 
Q 825 641 1194 531 
Q 1563 422 1919 422 
Q 2459 422 2753 634 
Q 3047 847 3047 1241 
Q 3047 1584 2836 1778 
Q 2625 1972 2144 2069 
L 1759 2144 
Q 1053 2284 737 2584 
Q 422 2884 422 3419 
Q 422 4038 858 4394 
Q 1294 4750 2059 4750 
Q 2388 4750 2728 4690 
Q 3069 4631 3425 4513 
z
" transform="scale(0.015625)"/>
       <path id="DejaVuSans-49" d="M 628 4666 
L 1259 4666 
L 1259 0 
L 628 0 
L 628 4666 
z
" transform="scale(0.015625)"/>
       <path id="DejaVuSans-5a" d="M 359 4666 
L 4025 4666 
L 4025 4184 
L 1075 531 
L 4097 531 
L 4097 0 
L 288 0 
L 288 481 
L 3238 4134 
L 359 4134 
L 359 4666 
z
" transform="scale(0.015625)"/>
       <path id="DejaVuSans-45" d="M 628 4666 
L 3578 4666 
L 3578 4134 
L 1259 4134 
L 1259 2753 
L 3481 2753 
L 3481 2222 
L 1259 2222 
L 1259 531 
L 3634 531 
L 3634 0 
L 628 0 
L 628 4666 
z
" transform="scale(0.015625)"/>
      </defs>
      <use xlink:href="#DejaVuSans-4d"/>
      <use xlink:href="#DejaVuSans-41" x="86.279297"/>
      <use xlink:href="#DejaVuSans-54" x="146.9375"/>
      <use xlink:href="#DejaVuSans-53" x="208.021484"/>
      <use xlink:href="#DejaVuSans-49" x="271.498047"/>
      <use xlink:href="#DejaVuSans-5a" x="300.990234"/>
      <use xlink:href="#DejaVuSans-45" x="369.496094"/>
     </g>
    </g>
   </g>
   <g id="matplotlib.axis_2">
    <g id="ytick_1">
     <g id="line2d_7">
      <path d="M 57.6 295.706823 
L 414.72 295.706823 
" clip-path="url(#pc63ef13067)" style="fill: none; stroke: #ffffff; stroke-linecap: round"/>
     </g>
     <g id="text_8">
      <!-- 0 -->
      <g style="fill: #262626" transform="translate(41.10125 299.885964) scale(0.11 -0.11)">
       <use xlink:href="#DejaVuSans-30"/>
      </g>
     </g>
    </g>
    <g id="ytick_2">
     <g id="line2d_8">
      <path d="M 57.6 248.444823 
L 414.72 248.444823 
" clip-path="url(#pc63ef13067)" style="fill: none; stroke: #ffffff; stroke-linecap: round"/>
     </g>
     <g id="text_9">
      <!-- 100 -->
      <g style="fill: #262626" transform="translate(27.10375 252.623964) scale(0.11 -0.11)">
       <use xlink:href="#DejaVuSans-31"/>
       <use xlink:href="#DejaVuSans-30" x="63.623047"/>
       <use xlink:href="#DejaVuSans-30" x="127.246094"/>
      </g>
     </g>
    </g>
    <g id="ytick_3">
     <g id="line2d_9">
      <path d="M 57.6 201.182823 
L 414.72 201.182823 
" clip-path="url(#pc63ef13067)" style="fill: none; stroke: #ffffff; stroke-linecap: round"/>
     </g>
     <g id="text_10">
      <!-- 200 -->
      <g style="fill: #262626" transform="translate(27.10375 205.361963) scale(0.11 -0.11)">
       <use xlink:href="#DejaVuSans-32"/>
       <use xlink:href="#DejaVuSans-30" x="63.623047"/>
       <use xlink:href="#DejaVuSans-30" x="127.246094"/>
      </g>
     </g>
    </g>
    <g id="ytick_4">
     <g id="line2d_10">
      <path d="M 57.6 153.920823 
L 414.72 153.920823 
" clip-path="url(#pc63ef13067)" style="fill: none; stroke: #ffffff; stroke-linecap: round"/>
     </g>
     <g id="text_11">
      <!-- 300 -->
      <g style="fill: #262626" transform="translate(27.10375 158.099963) scale(0.11 -0.11)">
       <defs>
        <path id="DejaVuSans-33" d="M 2597 2516 
Q 3050 2419 3304 2112 
Q 3559 1806 3559 1356 
Q 3559 666 3084 287 
Q 2609 -91 1734 -91 
Q 1441 -91 1130 -33 
Q 819 25 488 141 
L 488 750 
Q 750 597 1062 519 
Q 1375 441 1716 441 
Q 2309 441 2620 675 
Q 2931 909 2931 1356 
Q 2931 1769 2642 2001 
Q 2353 2234 1838 2234 
L 1294 2234 
L 1294 2753 
L 1863 2753 
Q 2328 2753 2575 2939 
Q 2822 3125 2822 3475 
Q 2822 3834 2567 4026 
Q 2313 4219 1838 4219 
Q 1578 4219 1281 4162 
Q 984 4106 628 3988 
L 628 4550 
Q 988 4650 1302 4700 
Q 1616 4750 1894 4750 
Q 2613 4750 3031 4423 
Q 3450 4097 3450 3541 
Q 3450 3153 3228 2886 
Q 3006 2619 2597 2516 
z
" transform="scale(0.015625)"/>
       </defs>
       <use xlink:href="#DejaVuSans-33"/>
       <use xlink:href="#DejaVuSans-30" x="63.623047"/>
       <use xlink:href="#DejaVuSans-30" x="127.246094"/>
      </g>
     </g>
    </g>
    <g id="ytick_5">
     <g id="line2d_11">
      <path d="M 57.6 106.658823 
L 414.72 106.658823 
" clip-path="url(#pc63ef13067)" style="fill: none; stroke: #ffffff; stroke-linecap: round"/>
     </g>
     <g id="text_12">
      <!-- 400 -->
      <g style="fill: #262626" transform="translate(27.10375 110.837963) scale(0.11 -0.11)">
       <use xlink:href="#DejaVuSans-34"/>
       <use xlink:href="#DejaVuSans-30" x="63.623047"/>
       <use xlink:href="#DejaVuSans-30" x="127.246094"/>
      </g>
     </g>
    </g>
    <g id="ytick_6">
     <g id="line2d_12">
      <path d="M 57.6 59.396822 
L 414.72 59.396822 
" clip-path="url(#pc63ef13067)" style="fill: none; stroke: #ffffff; stroke-linecap: round"/>
     </g>
     <g id="text_13">
      <!-- 500 -->
      <g style="fill: #262626" transform="translate(27.10375 63.575963) scale(0.11 -0.11)">
       <defs>
        <path id="DejaVuSans-35" d="M 691 4666 
L 3169 4666 
L 3169 4134 
L 1269 4134 
L 1269 2991 
Q 1406 3038 1543 3061 
Q 1681 3084 1819 3084 
Q 2600 3084 3056 2656 
Q 3513 2228 3513 1497 
Q 3513 744 3044 326 
Q 2575 -91 1722 -91 
Q 1428 -91 1123 -41 
Q 819 9 494 109 
L 494 744 
Q 775 591 1075 516 
Q 1375 441 1709 441 
Q 2250 441 2565 725 
Q 2881 1009 2881 1497 
Q 2881 1984 2565 2268 
Q 2250 2553 1709 2553 
Q 1456 2553 1204 2497 
Q 953 2441 691 2322 
L 691 4666 
z
" transform="scale(0.015625)"/>
       </defs>
       <use xlink:href="#DejaVuSans-35"/>
       <use xlink:href="#DejaVuSans-30" x="63.623047"/>
       <use xlink:href="#DejaVuSans-30" x="127.246094"/>
      </g>
     </g>
    </g>
    <g id="text_14">
     <!-- Requests/sec -->
     <g style="fill: #262626" transform="translate(20.608125 214.163625) rotate(-90) scale(0.12 -0.12)">
      <defs>
       <path id="DejaVuSans-52" d="M 2841 2188 
Q 3044 2119 3236 1894 
Q 3428 1669 3622 1275 
L 4263 0 
L 3584 0 
L 2988 1197 
Q 2756 1666 2539 1819 
Q 2322 1972 1947 1972 
L 1259 1972 
L 1259 0 
L 628 0 
L 628 4666 
L 2053 4666 
Q 2853 4666 3247 4331 
Q 3641 3997 3641 3322 
Q 3641 2881 3436 2590 
Q 3231 2300 2841 2188 
z
M 1259 4147 
L 1259 2491 
L 2053 2491 
Q 2509 2491 2742 2702 
Q 2975 2913 2975 3322 
Q 2975 3731 2742 3939 
Q 2509 4147 2053 4147 
L 1259 4147 
z
" transform="scale(0.015625)"/>
       <path id="DejaVuSans-65" d="M 3597 1894 
L 3597 1613 
L 953 1613 
Q 991 1019 1311 708 
Q 1631 397 2203 397 
Q 2534 397 2845 478 
Q 3156 559 3463 722 
L 3463 178 
Q 3153 47 2828 -22 
Q 2503 -91 2169 -91 
Q 1331 -91 842 396 
Q 353 884 353 1716 
Q 353 2575 817 3079 
Q 1281 3584 2069 3584 
Q 2775 3584 3186 3129 
Q 3597 2675 3597 1894 
z
M 3022 2063 
Q 3016 2534 2758 2815 
Q 2500 3097 2075 3097 
Q 1594 3097 1305 2825 
Q 1016 2553 972 2059 
L 3022 2063 
z
" transform="scale(0.015625)"/>
       <path id="DejaVuSans-71" d="M 947 1747 
Q 947 1113 1208 752 
Q 1469 391 1925 391 
Q 2381 391 2643 752 
Q 2906 1113 2906 1747 
Q 2906 2381 2643 2742 
Q 2381 3103 1925 3103 
Q 1469 3103 1208 2742 
Q 947 2381 947 1747 
z
M 2906 525 
Q 2725 213 2448 61 
Q 2172 -91 1784 -91 
Q 1150 -91 751 415 
Q 353 922 353 1747 
Q 353 2572 751 3078 
Q 1150 3584 1784 3584 
Q 2172 3584 2448 3432 
Q 2725 3281 2906 2969 
L 2906 3500 
L 3481 3500 
L 3481 -1331 
L 2906 -1331 
L 2906 525 
z
" transform="scale(0.015625)"/>
       <path id="DejaVuSans-75" d="M 544 1381 
L 544 3500 
L 1119 3500 
L 1119 1403 
Q 1119 906 1312 657 
Q 1506 409 1894 409 
Q 2359 409 2629 706 
Q 2900 1003 2900 1516 
L 2900 3500 
L 3475 3500 
L 3475 0 
L 2900 0 
L 2900 538 
Q 2691 219 2414 64 
Q 2138 -91 1772 -91 
Q 1169 -91 856 284 
Q 544 659 544 1381 
z
M 1991 3584 
L 1991 3584 
z
" transform="scale(0.015625)"/>
       <path id="DejaVuSans-73" d="M 2834 3397 
L 2834 2853 
Q 2591 2978 2328 3040 
Q 2066 3103 1784 3103 
Q 1356 3103 1142 2972 
Q 928 2841 928 2578 
Q 928 2378 1081 2264 
Q 1234 2150 1697 2047 
L 1894 2003 
Q 2506 1872 2764 1633 
Q 3022 1394 3022 966 
Q 3022 478 2636 193 
Q 2250 -91 1575 -91 
Q 1294 -91 989 -36 
Q 684 19 347 128 
L 347 722 
Q 666 556 975 473 
Q 1284 391 1588 391 
Q 1994 391 2212 530 
Q 2431 669 2431 922 
Q 2431 1156 2273 1281 
Q 2116 1406 1581 1522 
L 1381 1569 
Q 847 1681 609 1914 
Q 372 2147 372 2553 
Q 372 3047 722 3315 
Q 1072 3584 1716 3584 
Q 2034 3584 2315 3537 
Q 2597 3491 2834 3397 
z
" transform="scale(0.015625)"/>
       <path id="DejaVuSans-74" d="M 1172 4494 
L 1172 3500 
L 2356 3500 
L 2356 3053 
L 1172 3053 
L 1172 1153 
Q 1172 725 1289 603 
Q 1406 481 1766 481 
L 2356 481 
L 2356 0 
L 1766 0 
Q 1100 0 847 248 
Q 594 497 594 1153 
L 594 3053 
L 172 3053 
L 172 3500 
L 594 3500 
L 594 4494 
L 1172 4494 
z
" transform="scale(0.015625)"/>
       <path id="DejaVuSans-2f" d="M 1625 4666 
L 2156 4666 
L 531 -594 
L 0 -594 
L 1625 4666 
z
" transform="scale(0.015625)"/>
       <path id="DejaVuSans-63" d="M 3122 3366 
L 3122 2828 
Q 2878 2963 2633 3030 
Q 2388 3097 2138 3097 
Q 1578 3097 1268 2742 
Q 959 2388 959 1747 
Q 959 1106 1268 751 
Q 1578 397 2138 397 
Q 2388 397 2633 464 
Q 2878 531 3122 666 
L 3122 134 
Q 2881 22 2623 -34 
Q 2366 -91 2075 -91 
Q 1284 -91 818 406 
Q 353 903 353 1747 
Q 353 2603 823 3093 
Q 1294 3584 2113 3584 
Q 2378 3584 2631 3529 
Q 2884 3475 3122 3366 
z
" transform="scale(0.015625)"/>
      </defs>
      <use xlink:href="#DejaVuSans-52"/>
      <use xlink:href="#DejaVuSans-65" x="64.982422"/>
      <use xlink:href="#DejaVuSans-71" x="126.505859"/>
      <use xlink:href="#DejaVuSans-75" x="189.982422"/>
      <use xlink:href="#DejaVuSans-65" x="253.361328"/>
      <use xlink:href="#DejaVuSans-73" x="314.884766"/>
      <use xlink:href="#DejaVuSans-74" x="366.984375"/>
      <use xlink:href="#DejaVuSans-73" x="406.193359"/>
      <use xlink:href="#DejaVuSans-2f" x="458.292969"/>
      <use xlink:href="#DejaVuSans-73" x="491.984375"/>
      <use xlink:href="#DejaVuSans-65" x="544.083984"/>
      <use xlink:href="#DejaVuSans-63" x="605.607422"/>
     </g>
    </g>
   </g>
   <g id="PathCollection_1">
    <path d="M 73.832727 267.544072 
C 74.395308 267.544072 74.934923 267.320556 75.332727 266.922751 
C 75.730532 266.524947 75.954048 265.985332 75.954048 265.422751 
C 75.954048 264.860171 75.730532 264.320556 75.332727 263.922751 
C 74.934923 263.524947 74.395308 263.301431 73.832727 263.301431 
C 73.270147 263.301431 72.730532 263.524947 72.332727 263.922751 
C 71.934923 264.320556 71.711407 264.860171 71.711407 265.422751 
C 71.711407 265.985332 71.934923 266.524947 72.332727 266.922751 
C 72.730532 267.320556 73.270147 267.544072 73.832727 267.544072 
z
" clip-path="url(#pc63ef13067)" style="fill: #4c72b0; stroke: #ffffff; stroke-width: 0.339411"/>
    <path d="M 73.832727 267.575737 
C 74.395308 267.575737 74.934923 267.352221 75.332727 266.954417 
C 75.730532 266.556612 75.954048 266.016998 75.954048 265.454417 
C 75.954048 264.891836 75.730532 264.352221 75.332727 263.954417 
C 74.934923 263.556612 74.395308 263.333096 73.832727 263.333096 
C 73.270147 263.333096 72.730532 263.556612 72.332727 263.954417 
C 71.934923 264.352221 71.711407 264.891836 71.711407 265.454417 
C 71.711407 266.016998 71.934923 266.556612 72.332727 266.954417 
C 72.730532 267.352221 73.270147 267.575737 73.832727 267.575737 
z
" clip-path="url(#pc63ef13067)" style="fill: #4c72b0; stroke: #ffffff; stroke-width: 0.339411"/>
    <path d="M 73.832727 291.811691 
C 74.395308 291.811691 74.934923 291.588175 75.332727 291.19037 
C 75.730532 290.792566 75.954048 290.252951 75.954048 289.69037 
C 75.954048 289.12779 75.730532 288.588175 75.332727 288.19037 
C 74.934923 287.792566 74.395308 287.56905 73.832727 287.56905 
C 73.270147 287.56905 72.730532 287.792566 72.332727 288.19037 
C 71.934923 288.588175 71.711407 289.12779 71.711407 289.69037 
C 71.711407 290.252951 71.934923 290.792566 72.332727 291.19037 
C 72.730532 291.588175 73.270147 291.811691 73.832727 291.811691 
z
" clip-path="url(#pc63ef13067)" style="fill: #4c72b0; stroke: #ffffff; stroke-width: 0.339411"/>
    <path d="M 73.832727 297.290774 
C 74.395308 297.290774 74.934923 297.067259 75.332727 296.669454 
C 75.730532 296.271649 75.954048 295.732035 75.954048 295.169454 
C 75.954048 294.606873 75.730532 294.067259 75.332727 293.669454 
C 74.934923 293.271649 74.395308 293.048134 73.832727 293.048134 
C 73.270147 293.048134 72.730532 293.271649 72.332727 293.669454 
C 71.934923 294.067259 71.711407 294.606873 71.711407 295.169454 
C 71.711407 295.732035 71.934923 296.271649 72.332727 296.669454 
C 72.730532 297.067259 73.270147 297.290774 73.832727 297.290774 
z
" clip-path="url(#pc63ef13067)" style="fill: #4c72b0; stroke: #ffffff; stroke-width: 0.339411"/>
    <path d="M 212.97039 268.550752 
C 213.53297 268.550752 214.072585 268.327236 214.47039 267.929432 
C 214.868194 267.531627 215.09171 266.992013 215.09171 266.429432 
C 215.09171 265.866851 214.868194 265.327236 214.47039 264.929432 
C 214.072585 264.531627 213.53297 264.308112 212.97039 264.308112 
C 212.407809 264.308112 211.868194 264.531627 211.47039 264.929432 
C 211.072585 265.327236 210.849069 265.866851 210.849069 266.429432 
C 210.849069 266.992013 211.072585 267.531627 211.47039 267.929432 
C 211.868194 268.327236 212.407809 268.550752 212.97039 268.550752 
z
" clip-path="url(#pc63ef13067)" style="fill: #4c72b0; stroke: #ffffff; stroke-width: 0.339411"/>
    <path d="M 212.97039 275.864074 
C 213.53297 275.864074 214.072585 275.640558 214.47039 275.242754 
C 214.868194 274.844949 215.09171 274.305334 215.09171 273.742754 
C 215.09171 273.180173 214.868194 272.640558 214.47039 272.242754 
C 214.072585 271.844949 213.53297 271.621433 212.97039 271.621433 
C 212.407809 271.621433 211.868194 271.844949 211.47039 272.242754 
C 211.072585 272.640558 210.849069 273.180173 210.849069 273.742754 
C 210.849069 274.305334 211.072585 274.844949 211.47039 275.242754 
C 211.868194 275.640558 212.407809 275.864074 212.97039 275.864074 
z
" clip-path="url(#pc63ef13067)" style="fill: #4c72b0; stroke: #ffffff; stroke-width: 0.339411"/>
    <path d="M 212.97039 294.012682 
C 213.53297 294.012682 214.072585 293.789166 214.47039 293.391362 
C 214.868194 292.993557 215.09171 292.453943 215.09171 291.891362 
C 215.09171 291.328781 214.868194 290.789166 214.47039 290.391362 
C 214.072585 289.993557 213.53297 289.770041 212.97039 289.770041 
C 212.407809 289.770041 211.868194 289.993557 211.47039 290.391362 
C 211.072585 290.789166 210.849069 291.328781 210.849069 291.891362 
C 210.849069 292.453943 211.072585 292.993557 211.47039 293.391362 
C 211.868194 293.789166 212.407809 294.012682 212.97039 294.012682 
z
" clip-path="url(#pc63ef13067)" style="fill: #4c72b0; stroke: #ffffff; stroke-width: 0.339411"/>
    <path d="M 212.97039 297.4595 
C 213.53297 297.4595 214.072585 297.235984 214.47039 296.838179 
C 214.868194 296.440375 215.09171 295.90076 215.09171 295.338179 
C 215.09171 294.775599 214.868194 294.235984 214.47039 293.838179 
C 214.072585 293.440375 213.53297 293.216859 212.97039 293.216859 
C 212.407809 293.216859 211.868194 293.440375 211.47039 293.838179 
C 211.072585 294.235984 210.849069 294.775599 210.849069 295.338179 
C 210.849069 295.90076 211.072585 296.440375 211.47039 296.838179 
C 211.868194 297.235984 212.407809 297.4595 212.97039 297.4595 
z
" clip-path="url(#pc63ef13067)" style="fill: #4c72b0; stroke: #ffffff; stroke-width: 0.339411"/>
    <path d="M 398.487273 267.553524 
C 399.049853 267.553524 399.589468 267.330008 399.987273 266.932204 
C 400.385077 266.534399 400.608593 265.994784 400.608593 265.432204 
C 400.608593 264.869623 400.385077 264.330008 399.987273 263.932204 
C 399.589468 263.534399 399.049853 263.310883 398.487273 263.310883 
C 397.924692 263.310883 397.385077 263.534399 396.987273 263.932204 
C 396.589468 264.330008 396.365952 264.869623 396.365952 265.432204 
C 396.365952 265.994784 396.589468 266.534399 396.987273 266.932204 
C 397.385077 267.330008 397.924692 267.553524 398.487273 267.553524 
z
" clip-path="url(#pc63ef13067)" style="fill: #4c72b0; stroke: #ffffff; stroke-width: 0.339411"/>
    <path d="M 398.487273 284.988476 
C 399.049853 284.988476 399.589468 284.76496 399.987273 284.367155 
C 400.385077 283.969351 400.608593 283.429736 400.608593 282.867155 
C 400.608593 282.304575 400.385077 281.76496 399.987273 281.367155 
C 399.589468 280.969351 399.049853 280.745835 398.487273 280.745835 
C 397.924692 280.745835 397.385077 280.969351 396.987273 281.367155 
C 396.589468 281.76496 396.365952 282.304575 396.365952 282.867155 
C 396.365952 283.429736 396.589468 283.969351 396.987273 284.367155 
C 397.385077 284.76496 397.924692 284.988476 398.487273 284.988476 
z
" clip-path="url(#pc63ef13067)" style="fill: #4c72b0; stroke: #ffffff; stroke-width: 0.339411"/>
    <path d="M 398.487273 295.356341 
C 399.049853 295.356341 399.589468 295.132825 399.987273 294.73502 
C 400.385077 294.337216 400.608593 293.797601 400.608593 293.23502 
C 400.608593 292.67244 400.385077 292.132825 399.987273 291.73502 
C 399.589468 291.337216 399.049853 291.1137 398.487273 291.1137 
C 397.924692 291.1137 397.385077 291.337216 396.987273 291.73502 
C 396.589468 292.132825 396.365952 292.67244 396.365952 293.23502 
C 396.365952 293.797601 396.589468 294.337216 396.987273 294.73502 
C 397.385077 295.132825 397.924692 295.356341 398.487273 295.356341 
z
" clip-path="url(#pc63ef13067)" style="fill: #4c72b0; stroke: #ffffff; stroke-width: 0.339411"/>
    <path d="M 398.487273 297.60932 
C 399.049853 297.60932 399.589468 297.385805 399.987273 296.988 
C 400.385077 296.590195 400.608593 296.050581 400.608593 295.488 
C 400.608593 294.925419 400.385077 294.385805 399.987273 293.988 
C 399.589468 293.590195 399.049853 293.36668 398.487273 293.36668 
C 397.924692 293.36668 397.385077 293.590195 396.987273 293.988 
C 396.589468 294.385805 396.365952 294.925419 396.365952 295.488 
C 396.365952 296.050581 396.589468 296.590195 396.987273 296.988 
C 397.385077 297.385805 397.924692 297.60932 398.487273 297.60932 
z
" clip-path="url(#pc63ef13067)" style="fill: #4c72b0; stroke: #ffffff; stroke-width: 0.339411"/>
    <path d="M 73.832727 267.405594 
C 74.395308 267.405594 74.934923 267.182078 75.332727 266.784274 
C 75.730532 266.386469 75.954048 265.846854 75.954048 265.284274 
C 75.954048 264.721693 75.730532 264.182078 75.332727 263.784274 
C 74.934923 263.386469 74.395308 263.162953 73.832727 263.162953 
C 73.270147 263.162953 72.730532 263.386469 72.332727 263.784274 
C 71.934923 264.182078 71.711407 264.721693 71.711407 265.284274 
C 71.711407 265.846854 71.934923 266.386469 72.332727 266.784274 
C 72.730532 267.182078 73.270147 267.405594 73.832727 267.405594 
z
" clip-path="url(#pc63ef13067)" style="fill: #dd8452; stroke: #ffffff; stroke-width: 0.339411"/>
    <path d="M 73.832727 267.613547 
C 74.395308 267.613547 74.934923 267.390031 75.332727 266.992226 
C 75.730532 266.594422 75.954048 266.054807 75.954048 265.492226 
C 75.954048 264.929646 75.730532 264.390031 75.332727 263.992226 
C 74.934923 263.594422 74.395308 263.370906 73.832727 263.370906 
C 73.270147 263.370906 72.730532 263.594422 72.332727 263.992226 
C 71.934923 264.390031 71.711407 264.929646 71.711407 265.492226 
C 71.711407 266.054807 71.934923 266.594422 72.332727 266.992226 
C 72.730532 267.390031 73.270147 267.613547 73.832727 267.613547 
z
" clip-path="url(#pc63ef13067)" style="fill: #dd8452; stroke: #ffffff; stroke-width: 0.339411"/>
    <path d="M 73.832727 291.599012 
C 74.395308 291.599012 74.934923 291.375496 75.332727 290.977691 
C 75.730532 290.579887 75.954048 290.040272 75.954048 289.477691 
C 75.954048 288.915111 75.730532 288.375496 75.332727 287.977691 
C 74.934923 287.579887 74.395308 287.356371 73.832727 287.356371 
C 73.270147 287.356371 72.730532 287.579887 72.332727 287.977691 
C 71.934923 288.375496 71.711407 288.915111 71.711407 289.477691 
C 71.711407 290.040272 71.934923 290.579887 72.332727 290.977691 
C 72.730532 291.375496 73.270147 291.599012 73.832727 291.599012 
z
" clip-path="url(#pc63ef13067)" style="fill: #dd8452; stroke: #ffffff; stroke-width: 0.339411"/>
    <path d="M 73.832727 296.848402 
C 74.395308 296.848402 74.934923 296.624886 75.332727 296.227082 
C 75.730532 295.829277 75.954048 295.289663 75.954048 294.727082 
C 75.954048 294.164501 75.730532 293.624886 75.332727 293.227082 
C 74.934923 292.829277 74.395308 292.605761 73.832727 292.605761 
C 73.270147 292.605761 72.730532 292.829277 72.332727 293.227082 
C 71.934923 293.624886 71.711407 294.164501 71.711407 294.727082 
C 71.711407 295.289663 71.934923 295.829277 72.332727 296.227082 
C 72.730532 296.624886 73.270147 296.848402 73.832727 296.848402 
z
" clip-path="url(#pc63ef13067)" style="fill: #dd8452; stroke: #ffffff; stroke-width: 0.339411"/>
    <path d="M 212.97039 267.456164 
C 213.53297 267.456164 214.072585 267.232649 214.47039 266.834844 
C 214.868194 266.437039 215.09171 265.897425 215.09171 265.334844 
C 215.09171 264.772263 214.868194 264.232649 214.47039 263.834844 
C 214.072585 263.437039 213.53297 263.213524 212.97039 263.213524 
C 212.407809 263.213524 211.868194 263.437039 211.47039 263.834844 
C 211.072585 264.232649 210.849069 264.772263 210.849069 265.334844 
C 210.849069 265.897425 211.072585 266.437039 211.47039 266.834844 
C 211.868194 267.232649 212.407809 267.456164 212.97039 267.456164 
z
" clip-path="url(#pc63ef13067)" style="fill: #dd8452; stroke: #ffffff; stroke-width: 0.339411"/>
    <path d="M 212.97039 275.874944 
C 213.53297 275.874944 214.072585 275.651429 214.47039 275.253624 
C 214.868194 274.855819 215.09171 274.316205 215.09171 273.753624 
C 215.09171 273.191043 214.868194 272.651429 214.47039 272.253624 
C 214.072585 271.855819 213.53297 271.632304 212.97039 271.632304 
C 212.407809 271.632304 211.868194 271.855819 211.47039 272.253624 
C 211.072585 272.651429 210.849069 273.191043 210.849069 273.753624 
C 210.849069 274.316205 211.072585 274.855819 211.47039 275.253624 
C 211.868194 275.651429 212.407809 275.874944 212.97039 275.874944 
z
" clip-path="url(#pc63ef13067)" style="fill: #dd8452; stroke: #ffffff; stroke-width: 0.339411"/>
    <path d="M 212.97039 293.862862 
C 213.53297 293.862862 214.072585 293.639346 214.47039 293.241541 
C 214.868194 292.843737 215.09171 292.304122 215.09171 291.741541 
C 215.09171 291.178961 214.868194 290.639346 214.47039 290.241541 
C 214.072585 289.843737 213.53297 289.620221 212.97039 289.620221 
C 212.407809 289.620221 211.868194 289.843737 211.47039 290.241541 
C 211.072585 290.639346 210.849069 291.178961 210.849069 291.741541 
C 210.849069 292.304122 211.072585 292.843737 211.47039 293.241541 
C 211.868194 293.639346 212.407809 293.862862 212.97039 293.862862 
z
" clip-path="url(#pc63ef13067)" style="fill: #dd8452; stroke: #ffffff; stroke-width: 0.339411"/>
    <path d="M 212.97039 297.259582 
C 213.53297 297.259582 214.072585 297.036066 214.47039 296.638261 
C 214.868194 296.240457 215.09171 295.700842 215.09171 295.138261 
C 215.09171 294.57568 214.868194 294.036066 214.47039 293.638261 
C 214.072585 293.240457 213.53297 293.016941 212.97039 293.016941 
C 212.407809 293.016941 211.868194 293.240457 211.47039 293.638261 
C 211.072585 294.036066 210.849069 294.57568 210.849069 295.138261 
C 210.849069 295.700842 211.072585 296.240457 211.47039 296.638261 
C 211.868194 297.036066 212.407809 297.259582 212.97039 297.259582 
z
" clip-path="url(#pc63ef13067)" style="fill: #dd8452; stroke: #ffffff; stroke-width: 0.339411"/>
    <path d="M 398.487273 267.553524 
C 399.049853 267.553524 399.589468 267.330008 399.987273 266.932204 
C 400.385077 266.534399 400.608593 265.994784 400.608593 265.432204 
C 400.608593 264.869623 400.385077 264.330008 399.987273 263.932204 
C 399.589468 263.534399 399.049853 263.310883 398.487273 263.310883 
C 397.924692 263.310883 397.385077 263.534399 396.987273 263.932204 
C 396.589468 264.330008 396.365952 264.869623 396.365952 265.432204 
C 396.365952 265.994784 396.589468 266.534399 396.987273 266.932204 
C 397.385077 267.330008 397.924692 267.553524 398.487273 267.553524 
z
" clip-path="url(#pc63ef13067)" style="fill: #dd8452; stroke: #ffffff; stroke-width: 0.339411"/>
    <path d="M 398.487273 284.482772 
C 399.049853 284.482772 399.589468 284.259257 399.987273 283.861452 
C 400.385077 283.463647 400.608593 282.924033 400.608593 282.361452 
C 400.608593 281.798871 400.385077 281.259257 399.987273 280.861452 
C 399.589468 280.463647 399.049853 280.240132 398.487273 280.240132 
C 397.924692 280.240132 397.385077 280.463647 396.987273 280.861452 
C 396.589468 281.259257 396.365952 281.798871 396.365952 282.361452 
C 396.365952 282.924033 396.589468 283.463647 396.987273 283.861452 
C 397.385077 284.259257 397.924692 284.482772 398.487273 284.482772 
z
" clip-path="url(#pc63ef13067)" style="fill: #dd8452; stroke: #ffffff; stroke-width: 0.339411"/>
    <path d="M 398.487273 295.255673 
C 399.049853 295.255673 399.589468 295.032157 399.987273 294.634352 
C 400.385077 294.236548 400.608593 293.696933 400.608593 293.134352 
C 400.608593 292.571772 400.385077 292.032157 399.987273 291.634352 
C 399.589468 291.236548 399.049853 291.013032 398.487273 291.013032 
C 397.924692 291.013032 397.385077 291.236548 396.987273 291.634352 
C 396.589468 292.032157 396.365952 292.571772 396.365952 293.134352 
C 396.365952 293.696933 396.589468 294.236548 396.987273 294.634352 
C 397.385077 295.032157 397.924692 295.255673 398.487273 295.255673 
z
" clip-path="url(#pc63ef13067)" style="fill: #dd8452; stroke: #ffffff; stroke-width: 0.339411"/>
    <path d="M 398.487273 297.396641 
C 399.049853 297.396641 399.589468 297.173126 399.987273 296.775321 
C 400.385077 296.377516 400.608593 295.837902 400.608593 295.275321 
C 400.608593 294.71274 400.385077 294.173126 399.987273 293.775321 
C 399.589468 293.377516 399.049853 293.154001 398.487273 293.154001 
C 397.924692 293.154001 397.385077 293.377516 396.987273 293.775321 
C 396.589468 294.173126 396.365952 294.71274 396.365952 295.275321 
C 396.365952 295.837902 396.589468 296.377516 396.987273 296.775321 
C 397.385077 297.173126 397.924692 297.396641 398.487273 297.396641 
z
" clip-path="url(#pc63ef13067)" style="fill: #dd8452; stroke: #ffffff; stroke-width: 0.339411"/>
    <path d="M 73.832727 267.286021 
C 74.395308 267.286021 74.934923 267.062505 75.332727 266.664701 
C 75.730532 266.266896 75.954048 265.727281 75.954048 265.164701 
C 75.954048 264.60212 75.730532 264.062505 75.332727 263.664701 
C 74.934923 263.266896 74.395308 263.04338 73.832727 263.04338 
C 73.270147 263.04338 72.730532 263.266896 72.332727 263.664701 
C 71.934923 264.062505 71.711407 264.60212 71.711407 265.164701 
C 71.711407 265.727281 71.934923 266.266896 72.332727 266.664701 
C 72.730532 267.062505 73.270147 267.286021 73.832727 267.286021 
z
" clip-path="url(#pc63ef13067)" style="fill: #55a868; stroke: #ffffff; stroke-width: 0.339411"/>
    <path d="M 73.832727 267.59795 
C 74.395308 267.59795 74.934923 267.374435 75.332727 266.97663 
C 75.730532 266.578825 75.954048 266.039211 75.954048 265.47663 
C 75.954048 264.914049 75.730532 264.374435 75.332727 263.97663 
C 74.934923 263.578825 74.395308 263.35531 73.832727 263.35531 
C 73.270147 263.35531 72.730532 263.578825 72.332727 263.97663 
C 71.934923 264.374435 71.711407 264.914049 71.711407 265.47663 
C 71.711407 266.039211 71.934923 266.578825 72.332727 266.97663 
C 72.730532 267.374435 73.270147 267.59795 73.832727 267.59795 
z
" clip-path="url(#pc63ef13067)" style="fill: #55a868; stroke: #ffffff; stroke-width: 0.339411"/>
    <path d="M 73.832727 291.372154 
C 74.395308 291.372154 74.934923 291.148638 75.332727 290.750834 
C 75.730532 290.353029 75.954048 289.813415 75.954048 289.250834 
C 75.954048 288.688253 75.730532 288.148638 75.332727 287.750834 
C 74.934923 287.353029 74.395308 287.129514 73.832727 287.129514 
C 73.270147 287.129514 72.730532 287.353029 72.332727 287.750834 
C 71.934923 288.148638 71.711407 288.688253 71.711407 289.250834 
C 71.711407 289.813415 71.934923 290.353029 72.332727 290.750834 
C 72.730532 291.148638 73.270147 291.372154 73.832727 291.372154 
z
" clip-path="url(#pc63ef13067)" style="fill: #55a868; stroke: #ffffff; stroke-width: 0.339411"/>
    <path d="M 73.832727 295.6574 
C 74.395308 295.6574 74.934923 295.433884 75.332727 295.036079 
C 75.730532 294.638275 75.954048 294.09866 75.954048 293.536079 
C 75.954048 292.973499 75.730532 292.433884 75.332727 292.036079 
C 74.934923 291.638275 74.395308 291.414759 73.832727 291.414759 
C 73.270147 291.414759 72.730532 291.638275 72.332727 292.036079 
C 71.934923 292.433884 71.711407 292.973499 71.711407 293.536079 
C 71.711407 294.09866 71.934923 294.638275 72.332727 295.036079 
C 72.730532 295.433884 73.270147 295.6574 73.832727 295.6574 
z
" clip-path="url(#pc63ef13067)" style="fill: #55a868; stroke: #ffffff; stroke-width: 0.339411"/>
    <path d="M 212.97039 267.662227 
C 213.53297 267.662227 214.072585 267.438711 214.47039 267.040906 
C 214.868194 266.643102 215.09171 266.103487 215.09171 265.540906 
C 215.09171 264.978326 214.868194 264.438711 214.47039 264.040906 
C 214.072585 263.643102 213.53297 263.419586 212.97039 263.419586 
C 212.407809 263.419586 211.868194 263.643102 211.47039 264.040906 
C 211.072585 264.438711 210.849069 264.978326 210.849069 265.540906 
C 210.849069 266.103487 211.072585 266.643102 211.47039 267.040906 
C 211.868194 267.438711 212.407809 267.662227 212.97039 267.662227 
z
" clip-path="url(#pc63ef13067)" style="fill: #55a868; stroke: #ffffff; stroke-width: 0.339411"/>
    <path d="M 212.97039 275.81823 
C 213.53297 275.81823 214.072585 275.594714 214.47039 275.19691 
C 214.868194 274.799105 215.09171 274.25949 215.09171 273.69691 
C 215.09171 273.134329 214.868194 272.594714 214.47039 272.19691 
C 214.072585 271.799105 213.53297 271.575589 212.97039 271.575589 
C 212.407809 271.575589 211.868194 271.799105 211.47039 272.19691 
C 211.072585 272.594714 210.849069 273.134329 210.849069 273.69691 
C 210.849069 274.25949 211.072585 274.799105 211.47039 275.19691 
C 211.868194 275.594714 212.407809 275.81823 212.97039 275.81823 
z
" clip-path="url(#pc63ef13067)" style="fill: #55a868; stroke: #ffffff; stroke-width: 0.339411"/>
    <path d="M 212.97039 293.765029 
C 213.53297 293.765029 214.072585 293.541514 214.47039 293.143709 
C 214.868194 292.745904 215.09171 292.20629 215.09171 291.643709 
C 215.09171 291.081128 214.868194 290.541514 214.47039 290.143709 
C 214.072585 289.745904 213.53297 289.522389 212.97039 289.522389 
C 212.407809 289.522389 211.868194 289.745904 211.47039 290.143709 
C 211.072585 290.541514 210.849069 291.081128 210.849069 291.643709 
C 210.849069 292.20629 211.072585 292.745904 211.47039 293.143709 
C 211.868194 293.541514 212.407809 293.765029 212.97039 293.765029 
z
" clip-path="url(#pc63ef13067)" style="fill: #55a868; stroke: #ffffff; stroke-width: 0.339411"/>
    <path d="M 212.97039 296.203748 
C 213.53297 296.203748 214.072585 295.980233 214.47039 295.582428 
C 214.868194 295.184623 215.09171 294.645009 215.09171 294.082428 
C 215.09171 293.519847 214.868194 292.980233 214.47039 292.582428 
C 214.072585 292.184623 213.53297 291.961108 212.97039 291.961108 
C 212.407809 291.961108 211.868194 292.184623 211.47039 292.582428 
C 211.072585 292.980233 210.849069 293.519847 210.849069 294.082428 
C 210.849069 294.645009 211.072585 295.184623 211.47039 295.582428 
C 211.868194 295.980233 212.407809 296.203748 212.97039 296.203748 
z
" clip-path="url(#pc63ef13067)" style="fill: #55a868; stroke: #ffffff; stroke-width: 0.339411"/>
    <path d="M 398.487273 267.58519 
C 399.049853 267.58519 399.589468 267.361674 399.987273 266.963869 
C 400.385077 266.566065 400.608593 266.02645 400.608593 265.463869 
C 400.608593 264.901288 400.385077 264.361674 399.987273 263.963869 
C 399.589468 263.566065 399.049853 263.342549 398.487273 263.342549 
C 397.924692 263.342549 397.385077 263.566065 396.987273 263.963869 
C 396.589468 264.361674 396.365952 264.901288 396.365952 265.463869 
C 396.365952 266.02645 396.589468 266.566065 396.987273 266.963869 
C 397.385077 267.361674 397.924692 267.58519 398.487273 267.58519 
z
" clip-path="url(#pc63ef13067)" style="fill: #55a868; stroke: #ffffff; stroke-width: 0.339411"/>
    <path d="M 398.487273 284.46245 
C 399.049853 284.46245 399.589468 284.238934 399.987273 283.841129 
C 400.385077 283.443325 400.608593 282.90371 400.608593 282.341129 
C 400.608593 281.778549 400.385077 281.238934 399.987273 280.841129 
C 399.589468 280.443325 399.049853 280.219809 398.487273 280.219809 
C 397.924692 280.219809 397.385077 280.443325 396.987273 280.841129 
C 396.589468 281.238934 396.365952 281.778549 396.365952 282.341129 
C 396.365952 282.90371 396.589468 283.443325 396.987273 283.841129 
C 397.385077 284.238934 397.924692 284.46245 398.487273 284.46245 
z
" clip-path="url(#pc63ef13067)" style="fill: #55a868; stroke: #ffffff; stroke-width: 0.339411"/>
    <path d="M 398.487273 295.163984 
C 399.049853 295.163984 399.589468 294.940469 399.987273 294.542664 
C 400.385077 294.144859 400.608593 293.605245 400.608593 293.042664 
C 400.608593 292.480083 400.385077 291.940469 399.987273 291.542664 
C 399.589468 291.144859 399.049853 290.921344 398.487273 290.921344 
C 397.924692 290.921344 397.385077 291.144859 396.987273 291.542664 
C 396.589468 291.940469 396.365952 292.480083 396.365952 293.042664 
C 396.365952 293.605245 396.589468 294.144859 396.987273 294.542664 
C 397.385077 294.940469 397.924692 295.163984 398.487273 295.163984 
z
" clip-path="url(#pc63ef13067)" style="fill: #55a868; stroke: #ffffff; stroke-width: 0.339411"/>
    <path d="M 398.487273 296.747261 
C 399.049853 296.747261 399.589468 296.523746 399.987273 296.125941 
C 400.385077 295.728136 400.608593 295.188522 400.608593 294.625941 
C 400.608593 294.06336 400.385077 293.523746 399.987273 293.125941 
C 399.589468 292.728136 399.049853 292.504621 398.487273 292.504621 
C 397.924692 292.504621 397.385077 292.728136 396.987273 293.125941 
C 396.589468 293.523746 396.365952 294.06336 396.365952 294.625941 
C 396.365952 295.188522 396.589468 295.728136 396.987273 296.125941 
C 397.385077 296.523746 397.924692 296.747261 398.487273 296.747261 
z
" clip-path="url(#pc63ef13067)" style="fill: #55a868; stroke: #ffffff; stroke-width: 0.339411"/>
    <path d="M 73.832727 176.923913 
C 74.395308 176.923913 74.934923 176.700397 75.332727 176.302592 
C 75.730532 175.904788 75.954048 175.365173 75.954048 174.802592 
C 75.954048 174.240011 75.730532 173.700397 75.332727 173.302592 
C 74.934923 172.904788 74.395308 172.681272 73.832727 172.681272 
C 73.270147 172.681272 72.730532 172.904788 72.332727 173.302592 
C 71.934923 173.700397 71.711407 174.240011 71.711407 174.802592 
C 71.711407 175.365173 71.934923 175.904788 72.332727 176.302592 
C 72.730532 176.700397 73.270147 176.923913 73.832727 176.923913 
z
" clip-path="url(#pc63ef13067)" style="fill: #4c72b0; stroke: #ffffff; stroke-width: 0.339411"/>
    <path d="M 73.832727 255.798047 
C 74.395308 255.798047 74.934923 255.574531 75.332727 255.176726 
C 75.730532 254.778922 75.954048 254.239307 75.954048 253.676726 
C 75.954048 253.114146 75.730532 252.574531 75.332727 252.176726 
C 74.934923 251.778922 74.395308 251.555406 73.832727 251.555406 
C 73.270147 251.555406 72.730532 251.778922 72.332727 252.176726 
C 71.934923 252.574531 71.711407 253.114146 71.711407 253.676726 
C 71.711407 254.239307 71.934923 254.778922 72.332727 255.176726 
C 72.730532 255.574531 73.270147 255.798047 73.832727 255.798047 
z
" clip-path="url(#pc63ef13067)" style="fill: #4c72b0; stroke: #ffffff; stroke-width: 0.339411"/>
    <path d="M 73.832727 291.745524 
C 74.395308 291.745524 74.934923 291.522008 75.332727 291.124204 
C 75.730532 290.726399 75.954048 290.186784 75.954048 289.624204 
C 75.954048 289.061623 75.730532 288.522008 75.332727 288.124204 
C 74.934923 287.726399 74.395308 287.502883 73.832727 287.502883 
C 73.270147 287.502883 72.730532 287.726399 72.332727 288.124204 
C 71.934923 288.522008 71.711407 289.061623 71.711407 289.624204 
C 71.711407 290.186784 71.934923 290.726399 72.332727 291.124204 
C 72.730532 291.522008 73.270147 291.745524 73.832727 291.745524 
z
" clip-path="url(#pc63ef13067)" style="fill: #4c72b0; stroke: #ffffff; stroke-width: 0.339411"/>
    <path d="M 73.832727 297.289357 
C 74.395308 297.289357 74.934923 297.065841 75.332727 296.668036 
C 75.730532 296.270232 75.954048 295.730617 75.954048 295.168036 
C 75.954048 294.605456 75.730532 294.065841 75.332727 293.668036 
C 74.934923 293.270232 74.395308 293.046716 73.832727 293.046716 
C 73.270147 293.046716 72.730532 293.270232 72.332727 293.668036 
C 71.934923 294.065841 71.711407 294.605456 71.711407 295.168036 
C 71.711407 295.730617 71.934923 296.270232 72.332727 296.668036 
C 72.730532 297.065841 73.270147 297.289357 73.832727 297.289357 
z
" clip-path="url(#pc63ef13067)" style="fill: #4c72b0; stroke: #ffffff; stroke-width: 0.339411"/>
    <path d="M 212.97039 180.919442 
C 213.53297 180.919442 214.072585 180.695926 214.47039 180.298122 
C 214.868194 179.900317 215.09171 179.360702 215.09171 178.798122 
C 215.09171 178.235541 214.868194 177.695926 214.47039 177.298122 
C 214.072585 176.900317 213.53297 176.676801 212.97039 176.676801 
C 212.407809 176.676801 211.868194 176.900317 211.47039 177.298122 
C 211.072585 177.695926 210.849069 178.235541 210.849069 178.798122 
C 210.849069 179.360702 211.072585 179.900317 211.47039 180.298122 
C 211.868194 180.695926 212.407809 180.919442 212.97039 180.919442 
z
" clip-path="url(#pc63ef13067)" style="fill: #4c72b0; stroke: #ffffff; stroke-width: 0.339411"/>
    <path d="M 212.97039 275.901884 
C 213.53297 275.901884 214.072585 275.678368 214.47039 275.280563 
C 214.868194 274.882759 215.09171 274.343144 215.09171 273.780563 
C 215.09171 273.217983 214.868194 272.678368 214.47039 272.280563 
C 214.072585 271.882759 213.53297 271.659243 212.97039 271.659243 
C 212.407809 271.659243 211.868194 271.882759 211.47039 272.280563 
C 211.072585 272.678368 210.849069 273.217983 210.849069 273.780563 
C 210.849069 274.343144 211.072585 274.882759 211.47039 275.280563 
C 211.868194 275.678368 212.407809 275.901884 212.97039 275.901884 
z
" clip-path="url(#pc63ef13067)" style="fill: #4c72b0; stroke: #ffffff; stroke-width: 0.339411"/>
    <path d="M 212.97039 294.015518 
C 213.53297 294.015518 214.072585 293.792002 214.47039 293.394198 
C 214.868194 292.996393 215.09171 292.456778 215.09171 291.894198 
C 215.09171 291.331617 214.868194 290.792002 214.47039 290.394198 
C 214.072585 289.996393 213.53297 289.772877 212.97039 289.772877 
C 212.407809 289.772877 211.868194 289.996393 211.47039 290.394198 
C 211.072585 290.792002 210.849069 291.331617 210.849069 291.894198 
C 210.849069 292.456778 211.072585 292.996393 211.47039 293.394198 
C 211.868194 293.792002 212.407809 294.015518 212.97039 294.015518 
z
" clip-path="url(#pc63ef13067)" style="fill: #4c72b0; stroke: #ffffff; stroke-width: 0.339411"/>
    <path d="M 212.97039 297.456191 
C 213.53297 297.456191 214.072585 297.232676 214.47039 296.834871 
C 214.868194 296.437066 215.09171 295.897452 215.09171 295.334871 
C 215.09171 294.77229 214.868194 294.232676 214.47039 293.834871 
C 214.072585 293.437066 213.53297 293.213551 212.97039 293.213551 
C 212.407809 293.213551 211.868194 293.437066 211.47039 293.834871 
C 211.072585 294.232676 210.849069 294.77229 210.849069 295.334871 
C 210.849069 295.897452 211.072585 296.437066 211.47039 296.834871 
C 211.868194 297.232676 212.407809 297.456191 212.97039 297.456191 
z
" clip-path="url(#pc63ef13067)" style="fill: #4c72b0; stroke: #ffffff; stroke-width: 0.339411"/>
    <path d="M 398.487273 187.000171 
C 399.049853 187.000171 399.589468 186.776655 399.987273 186.378851 
C 400.385077 185.981046 400.608593 185.441431 400.608593 184.878851 
C 400.608593 184.31627 400.385077 183.776655 399.987273 183.378851 
C 399.589468 182.981046 399.049853 182.75753 398.487273 182.75753 
C 397.924692 182.75753 397.385077 182.981046 396.987273 183.378851 
C 396.589468 183.776655 396.365952 184.31627 396.365952 184.878851 
C 396.365952 185.441431 396.589468 185.981046 396.987273 186.378851 
C 397.385077 186.776655 397.924692 187.000171 398.487273 187.000171 
z
" clip-path="url(#pc63ef13067)" style="fill: #4c72b0; stroke: #ffffff; stroke-width: 0.339411"/>
    <path d="M 398.487273 284.546104 
C 399.049853 284.546104 399.589468 284.322588 399.987273 283.924783 
C 400.385077 283.526979 400.608593 282.987364 400.608593 282.424783 
C 400.608593 281.862202 400.385077 281.322588 399.987273 280.924783 
C 399.589468 280.526979 399.049853 280.303463 398.487273 280.303463 
C 397.924692 280.303463 397.385077 280.526979 396.987273 280.924783 
C 396.589468 281.322588 396.365952 281.862202 396.365952 282.424783 
C 396.365952 282.987364 396.589468 283.526979 396.987273 283.924783 
C 397.385077 284.322588 397.924692 284.546104 398.487273 284.546104 
z
" clip-path="url(#pc63ef13067)" style="fill: #4c72b0; stroke: #ffffff; stroke-width: 0.339411"/>
    <path d="M 398.487273 295.357759 
C 399.049853 295.357759 399.589468 295.134243 399.987273 294.736438 
C 400.385077 294.338634 400.608593 293.799019 400.608593 293.236438 
C 400.608593 292.673858 400.385077 292.134243 399.987273 291.736438 
C 399.589468 291.338634 399.049853 291.115118 398.487273 291.115118 
C 397.924692 291.115118 397.385077 291.338634 396.987273 291.736438 
C 396.589468 292.134243 396.365952 292.673858 396.365952 293.236438 
C 396.365952 293.799019 396.589468 294.338634 396.987273 294.736438 
C 397.385077 295.134243 397.924692 295.357759 398.487273 295.357759 
z
" clip-path="url(#pc63ef13067)" style="fill: #4c72b0; stroke: #ffffff; stroke-width: 0.339411"/>
    <path d="M 398.487273 297.60932 
C 399.049853 297.60932 399.589468 297.385805 399.987273 296.988 
C 400.385077 296.590195 400.608593 296.050581 400.608593 295.488 
C 400.608593 294.925419 400.385077 294.385805 399.987273 293.988 
C 399.589468 293.590195 399.049853 293.36668 398.487273 293.36668 
C 397.924692 293.36668 397.385077 293.590195 396.987273 293.988 
C 396.589468 294.385805 396.365952 294.925419 396.365952 295.488 
C 396.365952 296.050581 396.589468 296.590195 396.987273 296.988 
C 397.385077 297.385805 397.924692 297.60932 398.487273 297.60932 
z
" clip-path="url(#pc63ef13067)" style="fill: #4c72b0; stroke: #ffffff; stroke-width: 0.339411"/>
    <path d="M 73.832727 176.703672 
C 74.395308 176.703672 74.934923 176.480156 75.332727 176.082351 
C 75.730532 175.684547 75.954048 175.144932 75.954048 174.582351 
C 75.954048 174.019771 75.730532 173.480156 75.332727 173.082351 
C 74.934923 172.684547 74.395308 172.461031 73.832727 172.461031 
C 73.270147 172.461031 72.730532 172.684547 72.332727 173.082351 
C 71.934923 173.480156 71.711407 174.019771 71.711407 174.582351 
C 71.711407 175.144932 71.934923 175.684547 72.332727 176.082351 
C 72.730532 176.480156 73.270147 176.703672 73.832727 176.703672 
z
" clip-path="url(#pc63ef13067)" style="fill: #dd8452; stroke: #ffffff; stroke-width: 0.339411"/>
    <path d="M 73.832727 255.747476 
C 74.395308 255.747476 74.934923 255.523961 75.332727 255.126156 
C 75.730532 254.728351 75.954048 254.188737 75.954048 253.626156 
C 75.954048 253.063575 75.730532 252.523961 75.332727 252.126156 
C 74.934923 251.728351 74.395308 251.504836 73.832727 251.504836 
C 73.270147 251.504836 72.730532 251.728351 72.332727 252.126156 
C 71.934923 252.523961 71.711407 253.063575 71.711407 253.626156 
C 71.711407 254.188737 71.934923 254.728351 72.332727 255.126156 
C 72.730532 255.523961 73.270147 255.747476 73.832727 255.747476 
z
" clip-path="url(#pc63ef13067)" style="fill: #dd8452; stroke: #ffffff; stroke-width: 0.339411"/>
    <path d="M 73.832727 291.555058 
C 74.395308 291.555058 74.934923 291.331542 75.332727 290.933738 
C 75.730532 290.535933 75.954048 289.996319 75.954048 289.433738 
C 75.954048 288.871157 75.730532 288.331542 75.332727 287.933738 
C 74.934923 287.535933 74.395308 287.312417 73.832727 287.312417 
C 73.270147 287.312417 72.730532 287.535933 72.332727 287.933738 
C 71.934923 288.331542 71.711407 288.871157 71.711407 289.433738 
C 71.711407 289.996319 71.934923 290.535933 72.332727 290.933738 
C 72.730532 291.331542 73.270147 291.555058 73.832727 291.555058 
z
" clip-path="url(#pc63ef13067)" style="fill: #dd8452; stroke: #ffffff; stroke-width: 0.339411"/>
    <path d="M 73.832727 296.830915 
C 74.395308 296.830915 74.934923 296.6074 75.332727 296.209595 
C 75.730532 295.81179 75.954048 295.272176 75.954048 294.709595 
C 75.954048 294.147014 75.730532 293.6074 75.332727 293.209595 
C 74.934923 292.81179 74.395308 292.588275 73.832727 292.588275 
C 73.270147 292.588275 72.730532 292.81179 72.332727 293.209595 
C 71.934923 293.6074 71.711407 294.147014 71.711407 294.709595 
C 71.711407 295.272176 71.934923 295.81179 72.332727 296.209595 
C 72.730532 296.6074 73.270147 296.830915 73.832727 296.830915 
z
" clip-path="url(#pc63ef13067)" style="fill: #dd8452; stroke: #ffffff; stroke-width: 0.339411"/>
    <path d="M 212.97039 176.706507 
C 213.53297 176.706507 214.072585 176.482992 214.47039 176.085187 
C 214.868194 175.687382 215.09171 175.147768 215.09171 174.585187 
C 215.09171 174.022606 214.868194 173.482992 214.47039 173.085187 
C 214.072585 172.687382 213.53297 172.463867 212.97039 172.463867 
C 212.407809 172.463867 211.868194 172.687382 211.47039 173.085187 
C 211.072585 173.482992 210.849069 174.022606 210.849069 174.585187 
C 210.849069 175.147768 211.072585 175.687382 211.47039 176.085187 
C 211.868194 176.482992 212.407809 176.706507 212.97039 176.706507 
z
" clip-path="url(#pc63ef13067)" style="fill: #dd8452; stroke: #ffffff; stroke-width: 0.339411"/>
    <path d="M 212.97039 275.794599 
C 213.53297 275.794599 214.072585 275.571083 214.47039 275.173279 
C 214.868194 274.775474 215.09171 274.235859 215.09171 273.673279 
C 215.09171 273.110698 214.868194 272.571083 214.47039 272.173279 
C 214.072585 271.775474 213.53297 271.551958 212.97039 271.551958 
C 212.407809 271.551958 211.868194 271.775474 211.47039 272.173279 
C 211.072585 272.571083 210.849069 273.110698 210.849069 273.673279 
C 210.849069 274.235859 211.072585 274.775474 211.47039 275.173279 
C 211.868194 275.571083 212.407809 275.794599 212.97039 275.794599 
z
" clip-path="url(#pc63ef13067)" style="fill: #dd8452; stroke: #ffffff; stroke-width: 0.339411"/>
    <path d="M 212.97039 293.847265 
C 213.53297 293.847265 214.072585 293.623749 214.47039 293.225945 
C 214.868194 292.82814 215.09171 292.288526 215.09171 291.725945 
C 215.09171 291.163364 214.868194 290.623749 214.47039 290.225945 
C 214.072585 289.82814 213.53297 289.604624 212.97039 289.604624 
C 212.407809 289.604624 211.868194 289.82814 211.47039 290.225945 
C 211.072585 290.623749 210.849069 291.163364 210.849069 291.725945 
C 210.849069 292.288526 211.072585 292.82814 211.47039 293.225945 
C 211.868194 293.623749 212.407809 293.847265 212.97039 293.847265 
z
" clip-path="url(#pc63ef13067)" style="fill: #dd8452; stroke: #ffffff; stroke-width: 0.339411"/>
    <path d="M 212.97039 297.257691 
C 213.53297 297.257691 214.072585 297.034175 214.47039 296.636371 
C 214.868194 296.238566 215.09171 295.698951 215.09171 295.136371 
C 215.09171 294.57379 214.868194 294.034175 214.47039 293.636371 
C 214.072585 293.238566 213.53297 293.01505 212.97039 293.01505 
C 212.407809 293.01505 211.868194 293.238566 211.47039 293.636371 
C 211.072585 294.034175 210.849069 294.57379 210.849069 295.136371 
C 210.849069 295.698951 211.072585 296.238566 211.47039 296.636371 
C 211.868194 297.034175 212.407809 297.257691 212.97039 297.257691 
z
" clip-path="url(#pc63ef13067)" style="fill: #dd8452; stroke: #ffffff; stroke-width: 0.339411"/>
    <path d="M 398.487273 176.732029 
C 399.049853 176.732029 399.589468 176.508513 399.987273 176.110709 
C 400.385077 175.712904 400.608593 175.173289 400.608593 174.610709 
C 400.608593 174.048128 400.385077 173.508513 399.987273 173.110709 
C 399.589468 172.712904 399.049853 172.489388 398.487273 172.489388 
C 397.924692 172.489388 397.385077 172.712904 396.987273 173.110709 
C 396.589468 173.508513 396.365952 174.048128 396.365952 174.610709 
C 396.365952 175.173289 396.589468 175.712904 396.987273 176.110709 
C 397.385077 176.508513 397.924692 176.732029 398.487273 176.732029 
z
" clip-path="url(#pc63ef13067)" style="fill: #dd8452; stroke: #ffffff; stroke-width: 0.339411"/>
    <path d="M 398.487273 284.43551 
C 399.049853 284.43551 399.589468 284.211995 399.987273 283.81419 
C 400.385077 283.416385 400.608593 282.876771 400.608593 282.31419 
C 400.608593 281.751609 400.385077 281.211995 399.987273 280.81419 
C 399.589468 280.416385 399.049853 280.19287 398.487273 280.19287 
C 397.924692 280.19287 397.385077 280.416385 396.987273 280.81419 
C 396.589468 281.211995 396.365952 281.751609 396.365952 282.31419 
C 396.365952 282.876771 396.589468 283.416385 396.987273 283.81419 
C 397.385077 284.211995 397.924692 284.43551 398.487273 284.43551 
z
" clip-path="url(#pc63ef13067)" style="fill: #dd8452; stroke: #ffffff; stroke-width: 0.339411"/>
    <path d="M 398.487273 295.255673 
C 399.049853 295.255673 399.589468 295.032157 399.987273 294.634352 
C 400.385077 294.236548 400.608593 293.696933 400.608593 293.134352 
C 400.608593 292.571772 400.385077 292.032157 399.987273 291.634352 
C 399.589468 291.236548 399.049853 291.013032 398.487273 291.013032 
C 397.924692 291.013032 397.385077 291.236548 396.987273 291.634352 
C 396.589468 292.032157 396.365952 292.571772 396.365952 293.134352 
C 396.365952 293.696933 396.589468 294.236548 396.987273 294.634352 
C 397.385077 295.032157 397.924692 295.255673 398.487273 295.255673 
z
" clip-path="url(#pc63ef13067)" style="fill: #dd8452; stroke: #ffffff; stroke-width: 0.339411"/>
    <path d="M 398.487273 297.396641 
C 399.049853 297.396641 399.589468 297.173126 399.987273 296.775321 
C 400.385077 296.377516 400.608593 295.837902 400.608593 295.275321 
C 400.608593 294.71274 400.385077 294.173126 399.987273 293.775321 
C 399.589468 293.377516 399.049853 293.154001 398.487273 293.154001 
C 397.924692 293.154001 397.385077 293.377516 396.987273 293.775321 
C 396.589468 294.173126 396.365952 294.71274 396.365952 295.275321 
C 396.365952 295.837902 396.589468 296.377516 396.987273 296.775321 
C 397.385077 297.173126 397.924692 297.396641 398.487273 297.396641 
z
" clip-path="url(#pc63ef13067)" style="fill: #dd8452; stroke: #ffffff; stroke-width: 0.339411"/>
    <path d="M 73.832727 176.588352 
C 74.395308 176.588352 74.934923 176.364837 75.332727 175.967032 
C 75.730532 175.569227 75.954048 175.029613 75.954048 174.467032 
C 75.954048 173.904451 75.730532 173.364837 75.332727 172.967032 
C 74.934923 172.569227 74.395308 172.345712 73.832727 172.345712 
C 73.270147 172.345712 72.730532 172.569227 72.332727 172.967032 
C 71.934923 173.364837 71.711407 173.904451 71.711407 174.467032 
C 71.711407 175.029613 71.934923 175.569227 72.332727 175.967032 
C 72.730532 176.364837 73.270147 176.588352 73.832727 176.588352 
z
" clip-path="url(#pc63ef13067)" style="fill: #55a868; stroke: #ffffff; stroke-width: 0.339411"/>
    <path d="M 73.832727 255.716283 
C 74.395308 255.716283 74.934923 255.492768 75.332727 255.094963 
C 75.730532 254.697158 75.954048 254.157544 75.954048 253.594963 
C 75.954048 253.032382 75.730532 252.492768 75.332727 252.094963 
C 74.934923 251.697158 74.395308 251.473643 73.832727 251.473643 
C 73.270147 251.473643 72.730532 251.697158 72.332727 252.094963 
C 71.934923 252.492768 71.711407 253.032382 71.711407 253.594963 
C 71.711407 254.157544 71.934923 254.697158 72.332727 255.094963 
C 72.730532 255.492768 73.270147 255.716283 73.832727 255.716283 
z
" clip-path="url(#pc63ef13067)" style="fill: #55a868; stroke: #ffffff; stroke-width: 0.339411"/>
    <path d="M 73.832727 291.386333 
C 74.395308 291.386333 74.934923 291.162817 75.332727 290.765012 
C 75.730532 290.367208 75.954048 289.827593 75.954048 289.265012 
C 75.954048 288.702432 75.730532 288.162817 75.332727 287.765012 
C 74.934923 287.367208 74.395308 287.143692 73.832727 287.143692 
C 73.270147 287.143692 72.730532 287.367208 72.332727 287.765012 
C 71.934923 288.162817 71.711407 288.702432 71.711407 289.265012 
C 71.711407 289.827593 71.934923 290.367208 72.332727 290.765012 
C 72.730532 291.162817 73.270147 291.386333 73.832727 291.386333 
z
" clip-path="url(#pc63ef13067)" style="fill: #55a868; stroke: #ffffff; stroke-width: 0.339411"/>
    <path d="M 73.832727 295.666852 
C 74.395308 295.666852 74.934923 295.443336 75.332727 295.045532 
C 75.730532 294.647727 75.954048 294.108113 75.954048 293.545532 
C 75.954048 292.982951 75.730532 292.443336 75.332727 292.045532 
C 74.934923 291.647727 74.395308 291.424211 73.832727 291.424211 
C 73.270147 291.424211 72.730532 291.647727 72.332727 292.045532 
C 71.934923 292.443336 71.711407 292.982951 71.711407 293.545532 
C 71.711407 294.108113 71.934923 294.647727 72.332727 295.045532 
C 72.730532 295.443336 73.270147 295.666852 73.832727 295.666852 
z
" clip-path="url(#pc63ef13067)" style="fill: #55a868; stroke: #ffffff; stroke-width: 0.339411"/>
    <path d="M 212.97039 177.130448 
C 213.53297 177.130448 214.072585 176.906932 214.47039 176.509127 
C 214.868194 176.111323 215.09171 175.571708 215.09171 175.009127 
C 215.09171 174.446546 214.868194 173.906932 214.47039 173.509127 
C 214.072585 173.111323 213.53297 172.887807 212.97039 172.887807 
C 212.407809 172.887807 211.868194 173.111323 211.47039 173.509127 
C 211.072585 173.906932 210.849069 174.446546 210.849069 175.009127 
C 210.849069 175.571708 211.072585 176.111323 211.47039 176.509127 
C 211.868194 176.906932 212.407809 177.130448 212.97039 177.130448 
z
" clip-path="url(#pc63ef13067)" style="fill: #55a868; stroke: #ffffff; stroke-width: 0.339411"/>
    <path d="M 212.97039 275.76955 
C 213.53297 275.76955 214.072585 275.546034 214.47039 275.14823 
C 214.868194 274.750425 215.09171 274.21081 215.09171 273.64823 
C 215.09171 273.085649 214.868194 272.546034 214.47039 272.14823 
C 214.072585 271.750425 213.53297 271.526909 212.97039 271.526909 
C 212.407809 271.526909 211.868194 271.750425 211.47039 272.14823 
C 211.072585 272.546034 210.849069 273.085649 210.849069 273.64823 
C 210.849069 274.21081 211.072585 274.750425 211.47039 275.14823 
C 211.868194 275.546034 212.407809 275.76955 212.97039 275.76955 
z
" clip-path="url(#pc63ef13067)" style="fill: #55a868; stroke: #ffffff; stroke-width: 0.339411"/>
    <path d="M 212.97039 293.72911 
C 213.53297 293.72911 214.072585 293.505594 214.47039 293.10779 
C 214.868194 292.709985 215.09171 292.170371 215.09171 291.60779 
C 215.09171 291.045209 214.868194 290.505594 214.47039 290.10779 
C 214.072585 289.709985 213.53297 289.486469 212.97039 289.486469 
C 212.407809 289.486469 211.868194 289.709985 211.47039 290.10779 
C 211.072585 290.505594 210.849069 291.045209 210.849069 291.60779 
C 210.849069 292.170371 211.072585 292.709985 211.47039 293.10779 
C 211.868194 293.505594 212.407809 293.72911 212.97039 293.72911 
z
" clip-path="url(#pc63ef13067)" style="fill: #55a868; stroke: #ffffff; stroke-width: 0.339411"/>
    <path d="M 212.97039 296.248175 
C 213.53297 296.248175 214.072585 296.024659 214.47039 295.626854 
C 214.868194 295.22905 215.09171 294.689435 215.09171 294.126854 
C 215.09171 293.564274 214.868194 293.024659 214.47039 292.626854 
C 214.072585 292.22905 213.53297 292.005534 212.97039 292.005534 
C 212.407809 292.005534 211.868194 292.22905 211.47039 292.626854 
C 211.072585 293.024659 210.849069 293.564274 210.849069 294.126854 
C 210.849069 294.689435 211.072585 295.22905 211.47039 295.626854 
C 211.868194 296.024659 212.407809 296.248175 212.97039 296.248175 
z
" clip-path="url(#pc63ef13067)" style="fill: #55a868; stroke: #ffffff; stroke-width: 0.339411"/>
    <path d="M 398.487273 176.807648 
C 399.049853 176.807648 399.589468 176.584132 399.987273 176.186328 
C 400.385077 175.788523 400.608593 175.248908 400.608593 174.686328 
C 400.608593 174.123747 400.385077 173.584132 399.987273 173.186328 
C 399.589468 172.788523 399.049853 172.565007 398.487273 172.565007 
C 397.924692 172.565007 397.385077 172.788523 396.987273 173.186328 
C 396.589468 173.584132 396.365952 174.123747 396.365952 174.686328 
C 396.365952 175.248908 396.589468 175.788523 396.987273 176.186328 
C 397.385077 176.584132 397.924692 176.807648 398.487273 176.807648 
z
" clip-path="url(#pc63ef13067)" style="fill: #55a868; stroke: #ffffff; stroke-width: 0.339411"/>
    <path d="M 398.487273 284.46245 
C 399.049853 284.46245 399.589468 284.238934 399.987273 283.841129 
C 400.385077 283.443325 400.608593 282.90371 400.608593 282.341129 
C 400.608593 281.778549 400.385077 281.238934 399.987273 280.841129 
C 399.589468 280.443325 399.049853 280.219809 398.487273 280.219809 
C 397.924692 280.219809 397.385077 280.443325 396.987273 280.841129 
C 396.589468 281.238934 396.365952 281.778549 396.365952 282.341129 
C 396.365952 282.90371 396.589468 283.443325 396.987273 283.841129 
C 397.385077 284.238934 397.924692 284.46245 398.487273 284.46245 
z
" clip-path="url(#pc63ef13067)" style="fill: #55a868; stroke: #ffffff; stroke-width: 0.339411"/>
    <path d="M 398.487273 295.163984 
C 399.049853 295.163984 399.589468 294.940469 399.987273 294.542664 
C 400.385077 294.144859 400.608593 293.605245 400.608593 293.042664 
C 400.608593 292.480083 400.385077 291.940469 399.987273 291.542664 
C 399.589468 291.144859 399.049853 290.921344 398.487273 290.921344 
C 397.924692 290.921344 397.385077 291.144859 396.987273 291.542664 
C 396.589468 291.940469 396.365952 292.480083 396.365952 293.042664 
C 396.365952 293.605245 396.589468 294.144859 396.987273 294.542664 
C 397.385077 294.940469 397.924692 295.163984 398.487273 295.163984 
z
" clip-path="url(#pc63ef13067)" style="fill: #55a868; stroke: #ffffff; stroke-width: 0.339411"/>
    <path d="M 398.487273 296.747261 
C 399.049853 296.747261 399.589468 296.523746 399.987273 296.125941 
C 400.385077 295.728136 400.608593 295.188522 400.608593 294.625941 
C 400.608593 294.06336 400.385077 293.523746 399.987273 293.125941 
C 399.589468 292.728136 399.049853 292.504621 398.487273 292.504621 
C 397.924692 292.504621 397.385077 292.728136 396.987273 293.125941 
C 396.589468 293.523746 396.365952 294.06336 396.365952 294.625941 
C 396.365952 295.188522 396.589468 295.728136 396.987273 296.125941 
C 397.385077 296.523746 397.924692 296.747261 398.487273 296.747261 
z
" clip-path="url(#pc63ef13067)" style="fill: #55a868; stroke: #ffffff; stroke-width: 0.339411"/>
    <path d="M 73.832727 56.245121 
C 74.395308 56.245121 74.934923 56.021606 75.332727 55.623801 
C 75.730532 55.225996 75.954048 54.686382 75.954048 54.123801 
C 75.954048 53.56122 75.730532 53.021606 75.332727 52.623801 
C 74.934923 52.225996 74.395308 52.002481 73.832727 52.002481 
C 73.270147 52.002481 72.730532 52.225996 72.332727 52.623801 
C 71.934923 53.021606 71.711407 53.56122 71.711407 54.123801 
C 71.711407 54.686382 71.934923 55.225996 72.332727 55.623801 
C 72.730532 56.021606 73.270147 56.245121 73.832727 56.245121 
z
" clip-path="url(#pc63ef13067)" style="fill: #4c72b0; stroke: #ffffff; stroke-width: 0.339411"/>
    <path d="M 73.832727 255.756929 
C 74.395308 255.756929 74.934923 255.533413 75.332727 255.135608 
C 75.730532 254.737804 75.954048 254.198189 75.954048 253.635608 
C 75.954048 253.073028 75.730532 252.533413 75.332727 252.135608 
C 74.934923 251.737804 74.395308 251.514288 73.832727 251.514288 
C 73.270147 251.514288 72.730532 251.737804 72.332727 252.135608 
C 71.934923 252.533413 71.711407 253.073028 71.711407 253.635608 
C 71.711407 254.198189 71.934923 254.737804 72.332727 255.135608 
C 72.730532 255.533413 73.270147 255.756929 73.832727 255.756929 
z
" clip-path="url(#pc63ef13067)" style="fill: #4c72b0; stroke: #ffffff; stroke-width: 0.339411"/>
    <path d="M 73.832727 291.758285 
C 74.395308 291.758285 74.934923 291.534769 75.332727 291.136964 
C 75.730532 290.73916 75.954048 290.199545 75.954048 289.636964 
C 75.954048 289.074384 75.730532 288.534769 75.332727 288.136964 
C 74.934923 287.73916 74.395308 287.515644 73.832727 287.515644 
C 73.270147 287.515644 72.730532 287.73916 72.332727 288.136964 
C 71.934923 288.534769 71.711407 289.074384 71.711407 289.636964 
C 71.711407 290.199545 71.934923 290.73916 72.332727 291.136964 
C 72.730532 291.534769 73.270147 291.758285 73.832727 291.758285 
z
" clip-path="url(#pc63ef13067)" style="fill: #4c72b0; stroke: #ffffff; stroke-width: 0.339411"/>
    <path d="M 73.832727 297.287939 
C 74.395308 297.287939 74.934923 297.064423 75.332727 296.666618 
C 75.730532 296.268814 75.954048 295.729199 75.954048 295.166618 
C 75.954048 294.604038 75.730532 294.064423 75.332727 293.666618 
C 74.934923 293.268814 74.395308 293.045298 73.832727 293.045298 
C 73.270147 293.045298 72.730532 293.268814 72.332727 293.666618 
C 71.934923 294.064423 71.711407 294.604038 71.711407 295.166618 
C 71.711407 295.729199 71.934923 296.268814 72.332727 296.666618 
C 72.730532 297.064423 73.270147 297.287939 73.832727 297.287939 
z
" clip-path="url(#pc63ef13067)" style="fill: #4c72b0; stroke: #ffffff; stroke-width: 0.339411"/>
    <path d="M 212.97039 59.70659 
C 213.53297 59.70659 214.072585 59.483075 214.47039 59.08527 
C 214.868194 58.687465 215.09171 58.147851 215.09171 57.58527 
C 215.09171 57.022689 214.868194 56.483075 214.47039 56.08527 
C 214.072585 55.687465 213.53297 55.46395 212.97039 55.46395 
C 212.407809 55.46395 211.868194 55.687465 211.47039 56.08527 
C 211.072585 56.483075 210.849069 57.022689 210.849069 57.58527 
C 210.849069 58.147851 211.072585 58.687465 211.47039 59.08527 
C 211.868194 59.483075 212.407809 59.70659 212.97039 59.70659 
z
" clip-path="url(#pc63ef13067)" style="fill: #4c72b0; stroke: #ffffff; stroke-width: 0.339411"/>
    <path d="M 212.97039 276.67698 
C 213.53297 276.67698 214.072585 276.453465 214.47039 276.05566 
C 214.868194 275.657855 215.09171 275.118241 215.09171 274.55566 
C 215.09171 273.993079 214.868194 273.453465 214.47039 273.05566 
C 214.072585 272.657855 213.53297 272.43434 212.97039 272.43434 
C 212.407809 272.43434 211.868194 272.657855 211.47039 273.05566 
C 211.072585 273.453465 210.849069 273.993079 210.849069 274.55566 
C 210.849069 275.118241 211.072585 275.657855 211.47039 276.05566 
C 211.868194 276.453465 212.407809 276.67698 212.97039 276.67698 
z
" clip-path="url(#pc63ef13067)" style="fill: #4c72b0; stroke: #ffffff; stroke-width: 0.339411"/>
    <path d="M 212.97039 294.018826 
C 213.53297 294.018826 214.072585 293.795311 214.47039 293.397506 
C 214.868194 292.999701 215.09171 292.460087 215.09171 291.897506 
C 215.09171 291.334925 214.868194 290.795311 214.47039 290.397506 
C 214.072585 289.999701 213.53297 289.776186 212.97039 289.776186 
C 212.407809 289.776186 211.868194 289.999701 211.47039 290.397506 
C 211.072585 290.795311 210.849069 291.334925 210.849069 291.897506 
C 210.849069 292.460087 211.072585 292.999701 211.47039 293.397506 
C 211.868194 293.795311 212.407809 294.018826 212.97039 294.018826 
z
" clip-path="url(#pc63ef13067)" style="fill: #4c72b0; stroke: #ffffff; stroke-width: 0.339411"/>
    <path d="M 212.97039 297.458082 
C 213.53297 297.458082 214.072585 297.234566 214.47039 296.836762 
C 214.868194 296.438957 215.09171 295.899342 215.09171 295.336762 
C 215.09171 294.774181 214.868194 294.234566 214.47039 293.836762 
C 214.072585 293.438957 213.53297 293.215441 212.97039 293.215441 
C 212.407809 293.215441 211.868194 293.438957 211.47039 293.836762 
C 211.072585 294.234566 210.849069 294.774181 210.849069 295.336762 
C 210.849069 295.899342 211.072585 296.438957 211.47039 296.836762 
C 211.868194 297.234566 212.407809 297.458082 212.97039 297.458082 
z
" clip-path="url(#pc63ef13067)" style="fill: #4c72b0; stroke: #ffffff; stroke-width: 0.339411"/>
    <path d="M 398.487273 106.623578 
C 399.049853 106.623578 399.589468 106.400062 399.987273 106.002258 
C 400.385077 105.604453 400.608593 105.064838 400.608593 104.502258 
C 400.608593 103.939677 400.385077 103.400062 399.987273 103.002258 
C 399.589468 102.604453 399.049853 102.380937 398.487273 102.380937 
C 397.924692 102.380937 397.385077 102.604453 396.987273 103.002258 
C 396.589468 103.400062 396.365952 103.939677 396.365952 104.502258 
C 396.365952 105.064838 396.589468 105.604453 396.987273 106.002258 
C 397.385077 106.400062 397.924692 106.623578 398.487273 106.623578 
z
" clip-path="url(#pc63ef13067)" style="fill: #4c72b0; stroke: #ffffff; stroke-width: 0.339411"/>
    <path d="M 398.487273 284.541377 
C 399.049853 284.541377 399.589468 284.317862 399.987273 283.920057 
C 400.385077 283.522252 400.608593 282.982638 400.608593 282.420057 
C 400.608593 281.857476 400.385077 281.317862 399.987273 280.920057 
C 399.589468 280.522252 399.049853 280.298737 398.487273 280.298737 
C 397.924692 280.298737 397.385077 280.522252 396.987273 280.920057 
C 396.589468 281.317862 396.365952 281.857476 396.365952 282.420057 
C 396.365952 282.982638 396.589468 283.522252 396.987273 283.920057 
C 397.385077 284.317862 397.924692 284.541377 398.487273 284.541377 
z
" clip-path="url(#pc63ef13067)" style="fill: #4c72b0; stroke: #ffffff; stroke-width: 0.339411"/>
    <path d="M 398.487273 295.354923 
C 399.049853 295.354923 399.589468 295.131407 399.987273 294.733603 
C 400.385077 294.335798 400.608593 293.796183 400.608593 293.233603 
C 400.608593 292.671022 400.385077 292.131407 399.987273 291.733603 
C 399.589468 291.335798 399.049853 291.112282 398.487273 291.112282 
C 397.924692 291.112282 397.385077 291.335798 396.987273 291.733603 
C 396.589468 292.131407 396.365952 292.671022 396.365952 293.233603 
C 396.365952 293.796183 396.589468 294.335798 396.987273 294.733603 
C 397.385077 295.131407 397.924692 295.354923 398.487273 295.354923 
z
" clip-path="url(#pc63ef13067)" style="fill: #4c72b0; stroke: #ffffff; stroke-width: 0.339411"/>
    <path d="M 398.487273 297.60932 
C 399.049853 297.60932 399.589468 297.385805 399.987273 296.988 
C 400.385077 296.590195 400.608593 296.050581 400.608593 295.488 
C 400.608593 294.925419 400.385077 294.385805 399.987273 293.988 
C 399.589468 293.590195 399.049853 293.36668 398.487273 293.36668 
C 397.924692 293.36668 397.385077 293.590195 396.987273 293.988 
C 396.589468 294.385805 396.365952 294.925419 396.365952 295.488 
C 396.365952 296.050581 396.589468 296.590195 396.987273 296.988 
C 397.385077 297.385805 397.924692 297.60932 398.487273 297.60932 
z
" clip-path="url(#pc63ef13067)" style="fill: #4c72b0; stroke: #ffffff; stroke-width: 0.339411"/>
    <path d="M 73.832727 88.325149 
C 74.395308 88.325149 74.934923 88.101634 75.332727 87.703829 
C 75.730532 87.306024 75.954048 86.76641 75.954048 86.203829 
C 75.954048 85.641248 75.730532 85.101634 75.332727 84.703829 
C 74.934923 84.306024 74.395308 84.082509 73.832727 84.082509 
C 73.270147 84.082509 72.730532 84.306024 72.332727 84.703829 
C 71.934923 85.101634 71.711407 85.641248 71.711407 86.203829 
C 71.711407 86.76641 71.934923 87.306024 72.332727 87.703829 
C 72.730532 88.101634 73.270147 88.325149 73.832727 88.325149 
z
" clip-path="url(#pc63ef13067)" style="fill: #dd8452; stroke: #ffffff; stroke-width: 0.339411"/>
    <path d="M 73.832727 255.760237 
C 74.395308 255.760237 74.934923 255.536721 75.332727 255.138917 
C 75.730532 254.741112 75.954048 254.201497 75.954048 253.638917 
C 75.954048 253.076336 75.730532 252.536721 75.332727 252.138917 
C 74.934923 251.741112 74.395308 251.517596 73.832727 251.517596 
C 73.270147 251.517596 72.730532 251.741112 72.332727 252.138917 
C 71.934923 252.536721 71.711407 253.076336 71.711407 253.638917 
C 71.711407 254.201497 71.934923 254.741112 72.332727 255.138917 
C 72.730532 255.536721 73.270147 255.760237 73.832727 255.760237 
z
" clip-path="url(#pc63ef13067)" style="fill: #dd8452; stroke: #ffffff; stroke-width: 0.339411"/>
    <path d="M 73.832727 291.597594 
C 74.395308 291.597594 74.934923 291.374078 75.332727 290.976274 
C 75.730532 290.578469 75.954048 290.038854 75.954048 289.476274 
C 75.954048 288.913693 75.730532 288.374078 75.332727 287.976274 
C 74.934923 287.578469 74.395308 287.354953 73.832727 287.354953 
C 73.270147 287.354953 72.730532 287.578469 72.332727 287.976274 
C 71.934923 288.374078 71.711407 288.913693 71.711407 289.476274 
C 71.711407 290.038854 71.934923 290.578469 72.332727 290.976274 
C 72.730532 291.374078 73.270147 291.597594 73.832727 291.597594 
z
" clip-path="url(#pc63ef13067)" style="fill: #dd8452; stroke: #ffffff; stroke-width: 0.339411"/>
    <path d="M 73.832727 296.840368 
C 74.395308 296.840368 74.934923 296.616852 75.332727 296.219047 
C 75.730532 295.821243 75.954048 295.281628 75.954048 294.719047 
C 75.954048 294.156467 75.730532 293.616852 75.332727 293.219047 
C 74.934923 292.821243 74.395308 292.597727 73.832727 292.597727 
C 73.270147 292.597727 72.730532 292.821243 72.332727 293.219047 
C 71.934923 293.616852 71.711407 294.156467 71.711407 294.719047 
C 71.711407 295.281628 71.934923 295.821243 72.332727 296.219047 
C 72.730532 296.616852 73.270147 296.840368 73.832727 296.840368 
z
" clip-path="url(#pc63ef13067)" style="fill: #dd8452; stroke: #ffffff; stroke-width: 0.339411"/>
    <path d="M 212.97039 55.774392 
C 213.53297 55.774392 214.072585 55.550876 214.47039 55.153072 
C 214.868194 54.755267 215.09171 54.215652 215.09171 53.653072 
C 215.09171 53.090491 214.868194 52.550876 214.47039 52.153072 
C 214.072585 51.755267 213.53297 51.531751 212.97039 51.531751 
C 212.407809 51.531751 211.868194 51.755267 211.47039 52.153072 
C 211.072585 52.550876 210.849069 53.090491 210.849069 53.653072 
C 210.849069 54.215652 211.072585 54.755267 211.47039 55.153072 
C 211.868194 55.550876 212.407809 55.774392 212.97039 55.774392 
z
" clip-path="url(#pc63ef13067)" style="fill: #dd8452; stroke: #ffffff; stroke-width: 0.339411"/>
    <path d="M 212.97039 275.78042 
C 213.53297 275.78042 214.072585 275.556905 214.47039 275.1591 
C 214.868194 274.761295 215.09171 274.221681 215.09171 273.6591 
C 215.09171 273.096519 214.868194 272.556905 214.47039 272.1591 
C 214.072585 271.761295 213.53297 271.53778 212.97039 271.53778 
C 212.407809 271.53778 211.868194 271.761295 211.47039 272.1591 
C 211.072585 272.556905 210.849069 273.096519 210.849069 273.6591 
C 210.849069 274.221681 211.072585 274.761295 211.47039 275.1591 
C 211.868194 275.556905 212.407809 275.78042 212.97039 275.78042 
z
" clip-path="url(#pc63ef13067)" style="fill: #dd8452; stroke: #ffffff; stroke-width: 0.339411"/>
    <path d="M 212.97039 293.847265 
C 213.53297 293.847265 214.072585 293.623749 214.47039 293.225945 
C 214.868194 292.82814 215.09171 292.288526 215.09171 291.725945 
C 215.09171 291.163364 214.868194 290.623749 214.47039 290.225945 
C 214.072585 289.82814 213.53297 289.604624 212.97039 289.604624 
C 212.407809 289.604624 211.868194 289.82814 211.47039 290.225945 
C 211.072585 290.623749 210.849069 291.163364 210.849069 291.725945 
C 210.849069 292.288526 211.072585 292.82814 211.47039 293.225945 
C 211.868194 293.623749 212.407809 293.847265 212.97039 293.847265 
z
" clip-path="url(#pc63ef13067)" style="fill: #dd8452; stroke: #ffffff; stroke-width: 0.339411"/>
    <path d="M 212.97039 297.259582 
C 213.53297 297.259582 214.072585 297.036066 214.47039 296.638261 
C 214.868194 296.240457 215.09171 295.700842 215.09171 295.138261 
C 215.09171 294.57568 214.868194 294.036066 214.47039 293.638261 
C 214.072585 293.240457 213.53297 293.016941 212.97039 293.016941 
C 212.407809 293.016941 211.868194 293.240457 211.47039 293.638261 
C 211.072585 294.036066 210.849069 294.57568 210.849069 295.138261 
C 210.849069 295.700842 211.072585 296.240457 211.47039 296.638261 
C 211.868194 297.036066 212.407809 297.259582 212.97039 297.259582 
z
" clip-path="url(#pc63ef13067)" style="fill: #dd8452; stroke: #ffffff; stroke-width: 0.339411"/>
    <path d="M 398.487273 81.948088 
C 399.049853 81.948088 399.589468 81.724572 399.987273 81.326767 
C 400.385077 80.928963 400.608593 80.389348 400.608593 79.826767 
C 400.608593 79.264187 400.385077 78.724572 399.987273 78.326767 
C 399.589468 77.928963 399.049853 77.705447 398.487273 77.705447 
C 397.924692 77.705447 397.385077 77.928963 396.987273 78.326767 
C 396.589468 78.724572 396.365952 79.264187 396.365952 79.826767 
C 396.365952 80.389348 396.589468 80.928963 396.987273 81.326767 
C 397.385077 81.724572 397.924692 81.948088 398.487273 81.948088 
z
" clip-path="url(#pc63ef13067)" style="fill: #dd8452; stroke: #ffffff; stroke-width: 0.339411"/>
    <path d="M 398.487273 284.467176 
C 399.049853 284.467176 399.589468 284.24366 399.987273 283.845856 
C 400.385077 283.448051 400.608593 282.908436 400.608593 282.345856 
C 400.608593 281.783275 400.385077 281.24366 399.987273 280.845856 
C 399.589468 280.448051 399.049853 280.224535 398.487273 280.224535 
C 397.924692 280.224535 397.385077 280.448051 396.987273 280.845856 
C 396.589468 281.24366 396.365952 281.783275 396.365952 282.345856 
C 396.365952 282.908436 396.589468 283.448051 396.987273 283.845856 
C 397.385077 284.24366 397.924692 284.467176 398.487273 284.467176 
z
" clip-path="url(#pc63ef13067)" style="fill: #dd8452; stroke: #ffffff; stroke-width: 0.339411"/>
    <path d="M 398.487273 295.24433 
C 399.049853 295.24433 399.589468 295.020814 399.987273 294.62301 
C 400.385077 294.225205 400.608593 293.68559 400.608593 293.12301 
C 400.608593 292.560429 400.385077 292.020814 399.987273 291.62301 
C 399.589468 291.225205 399.049853 291.001689 398.487273 291.001689 
C 397.924692 291.001689 397.385077 291.225205 396.987273 291.62301 
C 396.589468 292.020814 396.365952 292.560429 396.365952 293.12301 
C 396.365952 293.68559 396.589468 294.225205 396.987273 294.62301 
C 397.385077 295.020814 397.924692 295.24433 398.487273 295.24433 
z
" clip-path="url(#pc63ef13067)" style="fill: #dd8452; stroke: #ffffff; stroke-width: 0.339411"/>
    <path d="M 398.487273 297.396641 
C 399.049853 297.396641 399.589468 297.173126 399.987273 296.775321 
C 400.385077 296.377516 400.608593 295.837902 400.608593 295.275321 
C 400.608593 294.71274 400.385077 294.173126 399.987273 293.775321 
C 399.589468 293.377516 399.049853 293.154001 398.487273 293.154001 
C 397.924692 293.154001 397.385077 293.377516 396.987273 293.775321 
C 396.589468 294.173126 396.365952 294.71274 396.365952 295.275321 
C 396.365952 295.837902 396.589468 296.377516 396.987273 296.775321 
C 397.385077 297.173126 397.924692 297.396641 398.487273 297.396641 
z
" clip-path="url(#pc63ef13067)" style="fill: #dd8452; stroke: #ffffff; stroke-width: 0.339411"/>
    <path d="M 73.832727 55.68932 
C 74.395308 55.68932 74.934923 55.465805 75.332727 55.068 
C 75.730532 54.670195 75.954048 54.130581 75.954048 53.568 
C 75.954048 53.005419 75.730532 52.465805 75.332727 52.068 
C 74.934923 51.670195 74.395308 51.44668 73.832727 51.44668 
C 73.270147 51.44668 72.730532 51.670195 72.332727 52.068 
C 71.934923 52.465805 71.711407 53.005419 71.711407 53.568 
C 71.711407 54.130581 71.934923 54.670195 72.332727 55.068 
C 72.730532 55.465805 73.270147 55.68932 73.832727 55.68932 
z
" clip-path="url(#pc63ef13067)" style="fill: #55a868; stroke: #ffffff; stroke-width: 0.339411"/>
    <path d="M 73.832727 255.728572 
C 74.395308 255.728572 74.934923 255.505056 75.332727 255.107251 
C 75.730532 254.709447 75.954048 254.169832 75.954048 253.607251 
C 75.954048 253.04467 75.730532 252.505056 75.332727 252.107251 
C 74.934923 251.709447 74.395308 251.485931 73.832727 251.485931 
C 73.270147 251.485931 72.730532 251.709447 72.332727 252.107251 
C 71.934923 252.505056 71.711407 253.04467 71.711407 253.607251 
C 71.711407 254.169832 71.934923 254.709447 72.332727 255.107251 
C 72.730532 255.505056 73.270147 255.728572 73.832727 255.728572 
z
" clip-path="url(#pc63ef13067)" style="fill: #55a868; stroke: #ffffff; stroke-width: 0.339411"/>
    <path d="M 73.832727 291.394367 
C 74.395308 291.394367 74.934923 291.170852 75.332727 290.773047 
C 75.730532 290.375242 75.954048 289.835628 75.954048 289.273047 
C 75.954048 288.710466 75.730532 288.170852 75.332727 287.773047 
C 74.934923 287.375242 74.395308 287.151727 73.832727 287.151727 
C 73.270147 287.151727 72.730532 287.375242 72.332727 287.773047 
C 71.934923 288.170852 71.711407 288.710466 71.711407 289.273047 
C 71.711407 289.835628 71.934923 290.375242 72.332727 290.773047 
C 72.730532 291.170852 73.270147 291.394367 73.832727 291.394367 
z
" clip-path="url(#pc63ef13067)" style="fill: #55a868; stroke: #ffffff; stroke-width: 0.339411"/>
    <path d="M 73.832727 295.598795 
C 74.395308 295.598795 74.934923 295.375279 75.332727 294.977475 
C 75.730532 294.57967 75.954048 294.040055 75.954048 293.477475 
C 75.954048 292.914894 75.730532 292.375279 75.332727 291.977475 
C 74.934923 291.57967 74.395308 291.356154 73.832727 291.356154 
C 73.270147 291.356154 72.730532 291.57967 72.332727 291.977475 
C 71.934923 292.375279 71.711407 292.914894 71.711407 293.477475 
C 71.711407 294.040055 71.934923 294.57967 72.332727 294.977475 
C 72.730532 295.375279 73.270147 295.598795 73.832727 295.598795 
z
" clip-path="url(#pc63ef13067)" style="fill: #55a868; stroke: #ffffff; stroke-width: 0.339411"/>
    <path d="M 212.97039 55.76494 
C 213.53297 55.76494 214.072585 55.541424 214.47039 55.143619 
C 214.868194 54.745815 215.09171 54.2062 215.09171 53.643619 
C 215.09171 53.081038 214.868194 52.541424 214.47039 52.143619 
C 214.072585 51.745815 213.53297 51.522299 212.97039 51.522299 
C 212.407809 51.522299 211.868194 51.745815 211.47039 52.143619 
C 211.072585 52.541424 210.849069 53.081038 210.849069 53.643619 
C 210.849069 54.2062 211.072585 54.745815 211.47039 55.143619 
C 211.868194 55.541424 212.407809 55.76494 212.97039 55.76494 
z
" clip-path="url(#pc63ef13067)" style="fill: #55a868; stroke: #ffffff; stroke-width: 0.339411"/>
    <path d="M 212.97039 275.81823 
C 213.53297 275.81823 214.072585 275.594714 214.47039 275.19691 
C 214.868194 274.799105 215.09171 274.25949 215.09171 273.69691 
C 215.09171 273.134329 214.868194 272.594714 214.47039 272.19691 
C 214.072585 271.799105 213.53297 271.575589 212.97039 271.575589 
C 212.407809 271.575589 211.868194 271.799105 211.47039 272.19691 
C 211.072585 272.594714 210.849069 273.134329 210.849069 273.69691 
C 210.849069 274.25949 211.072585 274.799105 211.47039 275.19691 
C 211.868194 275.594714 212.407809 275.81823 212.97039 275.81823 
z
" clip-path="url(#pc63ef13067)" style="fill: #55a868; stroke: #ffffff; stroke-width: 0.339411"/>
    <path d="M 212.97039 293.750851 
C 213.53297 293.750851 214.072585 293.527335 214.47039 293.12953 
C 214.868194 292.731726 215.09171 292.192111 215.09171 291.62953 
C 215.09171 291.06695 214.868194 290.527335 214.47039 290.12953 
C 214.072585 289.731726 213.53297 289.50821 212.97039 289.50821 
C 212.407809 289.50821 211.868194 289.731726 211.47039 290.12953 
C 211.072585 290.527335 210.849069 291.06695 210.849069 291.62953 
C 210.849069 292.192111 211.072585 292.731726 211.47039 293.12953 
C 211.868194 293.527335 212.407809 293.750851 212.97039 293.750851 
z
" clip-path="url(#pc63ef13067)" style="fill: #55a868; stroke: #ffffff; stroke-width: 0.339411"/>
    <path d="M 212.97039 296.252901 
C 213.53297 296.252901 214.072585 296.029385 214.47039 295.631581 
C 214.868194 295.233776 215.09171 294.694161 215.09171 294.131581 
C 215.09171 293.569 214.868194 293.029385 214.47039 292.631581 
C 214.072585 292.233776 213.53297 292.01026 212.97039 292.01026 
C 212.407809 292.01026 211.868194 292.233776 211.47039 292.631581 
C 211.072585 293.029385 210.849069 293.569 210.849069 294.131581 
C 210.849069 294.694161 211.072585 295.233776 211.47039 295.631581 
C 211.868194 296.029385 212.407809 296.252901 212.97039 296.252901 
z
" clip-path="url(#pc63ef13067)" style="fill: #55a868; stroke: #ffffff; stroke-width: 0.339411"/>
    <path d="M 398.487273 79.449346 
C 399.049853 79.449346 399.589468 79.22583 399.987273 78.828025 
C 400.385077 78.430221 400.608593 77.890606 400.608593 77.328025 
C 400.608593 76.765445 400.385077 76.22583 399.987273 75.828025 
C 399.589468 75.430221 399.049853 75.206705 398.487273 75.206705 
C 397.924692 75.206705 397.385077 75.430221 396.987273 75.828025 
C 396.589468 76.22583 396.365952 76.765445 396.365952 77.328025 
C 396.365952 77.890606 396.589468 78.430221 396.987273 78.828025 
C 397.385077 79.22583 397.924692 79.449346 398.487273 79.449346 
z
" clip-path="url(#pc63ef13067)" style="fill: #55a868; stroke: #ffffff; stroke-width: 0.339411"/>
    <path d="M 398.487273 284.46245 
C 399.049853 284.46245 399.589468 284.238934 399.987273 283.841129 
C 400.385077 283.443325 400.608593 282.90371 400.608593 282.341129 
C 400.608593 281.778549 400.385077 281.238934 399.987273 280.841129 
C 399.589468 280.443325 399.049853 280.219809 398.487273 280.219809 
C 397.924692 280.219809 397.385077 280.443325 396.987273 280.841129 
C 396.589468 281.238934 396.365952 281.778549 396.365952 282.341129 
C 396.365952 282.90371 396.589468 283.443325 396.987273 283.841129 
C 397.385077 284.238934 397.924692 284.46245 398.487273 284.46245 
z
" clip-path="url(#pc63ef13067)" style="fill: #55a868; stroke: #ffffff; stroke-width: 0.339411"/>
    <path d="M 398.487273 295.170601 
C 399.049853 295.170601 399.589468 294.947085 399.987273 294.549281 
C 400.385077 294.151476 400.608593 293.611862 400.608593 293.049281 
C 400.608593 292.4867 400.385077 291.947085 399.987273 291.549281 
C 399.589468 291.151476 399.049853 290.92796 398.487273 290.92796 
C 397.924692 290.92796 397.385077 291.151476 396.987273 291.549281 
C 396.589468 291.947085 396.365952 292.4867 396.365952 293.049281 
C 396.365952 293.611862 396.589468 294.151476 396.987273 294.549281 
C 397.385077 294.947085 397.924692 295.170601 398.487273 295.170601 
z
" clip-path="url(#pc63ef13067)" style="fill: #55a868; stroke: #ffffff; stroke-width: 0.339411"/>
    <path d="M 398.487273 296.747261 
C 399.049853 296.747261 399.589468 296.523746 399.987273 296.125941 
C 400.385077 295.728136 400.608593 295.188522 400.608593 294.625941 
C 400.608593 294.06336 400.385077 293.523746 399.987273 293.125941 
C 399.589468 292.728136 399.049853 292.504621 398.487273 292.504621 
C 397.924692 292.504621 397.385077 292.728136 396.987273 293.125941 
C 396.589468 293.523746 396.365952 294.06336 396.365952 294.625941 
C 396.365952 295.188522 396.589468 295.728136 396.987273 296.125941 
C 397.385077 296.523746 397.924692 296.747261 398.487273 296.747261 
z
" clip-path="url(#pc63ef13067)" style="fill: #55a868; stroke: #ffffff; stroke-width: 0.339411"/>
   </g>
   <g id="line2d_13"/>
   <g id="line2d_14"/>
   <g id="line2d_15"/>
   <g id="line2d_16"/>
   <g id="line2d_17"/>
   <g id="line2d_18"/>
   <g id="patch_3">
    <path d="M 57.6 307.584 
L 57.6 41.472 
" style="fill: none; stroke: #ffffff; stroke-width: 1.25; stroke-linejoin: miter; stroke-linecap: square"/>
   </g>
   <g id="patch_4">
    <path d="M 414.72 307.584 
L 414.72 41.472 
" style="fill: none; stroke: #ffffff; stroke-width: 1.25; stroke-linejoin: miter; stroke-linecap: square"/>
   </g>
   <g id="patch_5">
    <path d="M 57.6 307.584 
L 414.72 307.584 
" style="fill: none; stroke: #ffffff; stroke-width: 1.25; stroke-linejoin: miter; stroke-linecap: square"/>
   </g>
   <g id="patch_6">
    <path d="M 57.6 41.472 
L 414.72 41.472 
" style="fill: none; stroke: #ffffff; stroke-width: 1.25; stroke-linejoin: miter; stroke-linecap: square"/>
   </g>
   <g id="legend_1">
    <g id="patch_7">
     <path d="M 285.95125 165.207 
L 407.02 165.207 
Q 409.22 165.207 409.22 163.007 
L 409.22 49.172 
Q 409.22 46.972 407.02 46.972 
L 285.95125 46.972 
Q 283.75125 46.972 283.75125 49.172 
L 283.75125 163.007 
Q 283.75125 165.207 285.95125 165.207 
z
" style="fill: #eaeaf2; opacity: 0.8; stroke: #cccccc; stroke-linejoin: miter"/>
    </g>
    <g id="text_15">
     <!-- NB_PATTERNS -->
     <g style="fill: #262626" transform="translate(304.523125 60.490125) scale(0.12 -0.12)">
      <defs>
       <path id="DejaVuSans-4e" d="M 628 4666 
L 1478 4666 
L 3547 763 
L 3547 4666 
L 4159 4666 
L 4159 0 
L 3309 0 
L 1241 3903 
L 1241 0 
L 628 0 
L 628 4666 
z
" transform="scale(0.015625)"/>
       <path id="DejaVuSans-42" d="M 1259 2228 
L 1259 519 
L 2272 519 
Q 2781 519 3026 730 
Q 3272 941 3272 1375 
Q 3272 1813 3026 2020 
Q 2781 2228 2272 2228 
L 1259 2228 
z
M 1259 4147 
L 1259 2741 
L 2194 2741 
Q 2656 2741 2882 2914 
Q 3109 3088 3109 3444 
Q 3109 3797 2882 3972 
Q 2656 4147 2194 4147 
L 1259 4147 
z
M 628 4666 
L 2241 4666 
Q 2963 4666 3353 4366 
Q 3744 4066 3744 3513 
Q 3744 3084 3544 2831 
Q 3344 2578 2956 2516 
Q 3422 2416 3680 2098 
Q 3938 1781 3938 1306 
Q 3938 681 3513 340 
Q 3088 0 2303 0 
L 628 0 
L 628 4666 
z
" transform="scale(0.015625)"/>
       <path id="DejaVuSans-5f" d="M 3263 -1063 
L 3263 -1509 
L -63 -1509 
L -63 -1063 
L 3263 -1063 
z
" transform="scale(0.015625)"/>
       <path id="DejaVuSans-50" d="M 1259 4147 
L 1259 2394 
L 2053 2394 
Q 2494 2394 2734 2622 
Q 2975 2850 2975 3272 
Q 2975 3691 2734 3919 
Q 2494 4147 2053 4147 
L 1259 4147 
z
M 628 4666 
L 2053 4666 
Q 2838 4666 3239 4311 
Q 3641 3956 3641 3272 
Q 3641 2581 3239 2228 
Q 2838 1875 2053 1875 
L 1259 1875 
L 1259 0 
L 628 0 
L 628 4666 
z
" transform="scale(0.015625)"/>
      </defs>
      <use xlink:href="#DejaVuSans-4e"/>
      <use xlink:href="#DejaVuSans-42" x="74.804688"/>
      <use xlink:href="#DejaVuSans-5f" x="143.408203"/>
      <use xlink:href="#DejaVuSans-50" x="193.408203"/>
      <use xlink:href="#DejaVuSans-41" x="247.335938"/>
      <use xlink:href="#DejaVuSans-54" x="307.994141"/>
      <use xlink:href="#DejaVuSans-54" x="367.328125"/>
      <use xlink:href="#DejaVuSans-45" x="428.412109"/>
      <use xlink:href="#DejaVuSans-52" x="491.595703"/>
      <use xlink:href="#DejaVuSans-4e" x="561.078125"/>
      <use xlink:href="#DejaVuSans-53" x="635.882812"/>
     </g>
    </g>
    <g id="line2d_19"/>
    <g id="text_16">
     <!-- NB_PATTERNS -->
     <g style="fill: #262626" transform="translate(318.95125 77.177781) scale(0.11 -0.11)">
      <use xlink:href="#DejaVuSans-4e"/>
      <use xlink:href="#DejaVuSans-42" x="74.804688"/>
      <use xlink:href="#DejaVuSans-5f" x="143.408203"/>
      <use xlink:href="#DejaVuSans-50" x="193.408203"/>
      <use xlink:href="#DejaVuSans-41" x="247.335938"/>
      <use xlink:href="#DejaVuSans-54" x="307.994141"/>
      <use xlink:href="#DejaVuSans-54" x="367.328125"/>
      <use xlink:href="#DejaVuSans-45" x="428.412109"/>
      <use xlink:href="#DejaVuSans-52" x="491.595703"/>
      <use xlink:href="#DejaVuSans-4e" x="561.078125"/>
      <use xlink:href="#DejaVuSans-53" x="635.882812"/>
     </g>
    </g>
    <g id="line2d_20">
     <defs>
      <path id="mec6bc1df5e" d="M 0 3 
C 0.795609 3 1.55874 2.683901 2.12132 2.12132 
C 2.683901 1.55874 3 0.795609 3 0 
C 3 -0.795609 2.683901 -1.55874 2.12132 -2.12132 
C 1.55874 -2.683901 0.795609 -3 0 -3 
C -0.795609 -3 -1.55874 -2.683901 -2.12132 -2.12132 
C -2.683901 -1.55874 -3 -0.795609 -3 0 
C -3 0.795609 -2.683901 1.55874 -2.12132 2.12132 
C -1.55874 2.683901 -0.795609 3 0 3 
z
" style="stroke: #ffffff; stroke-width: 0.339411"/>
     </defs>
     <g>
      <use xlink:href="#mec6bc1df5e" x="299.15125" y="89.779656" style="fill: #4c72b0; stroke: #ffffff; stroke-width: 0.339411"/>
     </g>
    </g>
    <g id="text_17">
     <!-- 1 -->
     <g style="fill: #262626" transform="translate(318.95125 93.629656) scale(0.11 -0.11)">
      <use xlink:href="#DejaVuSans-31"/>
     </g>
    </g>
    <g id="line2d_21">
     <defs>
      <path id="mbe52b210f2" d="M 0 3 
C 0.795609 3 1.55874 2.683901 2.12132 2.12132 
C 2.683901 1.55874 3 0.795609 3 0 
C 3 -0.795609 2.683901 -1.55874 2.12132 -2.12132 
C 1.55874 -2.683901 0.795609 -3 0 -3 
C -0.795609 -3 -1.55874 -2.683901 -2.12132 -2.12132 
C -2.683901 -1.55874 -3 -0.795609 -3 0 
C -3 0.795609 -2.683901 1.55874 -2.12132 2.12132 
C -1.55874 2.683901 -0.795609 3 0 3 
z
" style="stroke: #ffffff; stroke-width: 0.339411"/>
     </defs>
     <g>
      <use xlink:href="#mbe52b210f2" x="299.15125" y="105.925594" style="fill: #dd8452; stroke: #ffffff; stroke-width: 0.339411"/>
     </g>
    </g>
    <g id="text_18">
     <!-- 4 -->
     <g style="fill: #262626" transform="translate(318.95125 109.775594) scale(0.11 -0.11)">
      <use xlink:href="#DejaVuSans-34"/>
     </g>
    </g>
    <g id="line2d_22">
     <defs>
      <path id="m4ff9080355" d="M 0 3 
C 0.795609 3 1.55874 2.683901 2.12132 2.12132 
C 2.683901 1.55874 3 0.795609 3 0 
C 3 -0.795609 2.683901 -1.55874 2.12132 -2.12132 
C 1.55874 -2.683901 0.795609 -3 0 -3 
C -0.795609 -3 -1.55874 -2.683901 -2.12132 -2.12132 
C -2.683901 -1.55874 -3 -0.795609 -3 0 
C -3 0.795609 -2.683901 1.55874 -2.12132 2.12132 
C -1.55874 2.683901 -0.795609 3 0 3 
z
" style="stroke: #ffffff; stroke-width: 0.339411"/>
     </defs>
     <g>
      <use xlink:href="#m4ff9080355" x="299.15125" y="122.071531" style="fill: #55a868; stroke: #ffffff; stroke-width: 0.339411"/>
     </g>
    </g>
    <g id="text_19">
     <!-- 8 -->
     <g style="fill: #262626" transform="translate(318.95125 125.921531) scale(0.11 -0.11)">
      <use xlink:href="#DejaVuSans-38"/>
     </g>
    </g>
    <g id="line2d_23"/>
    <g id="text_20">
     <!-- PATTERNS_SIZE -->
     <g style="fill: #262626" transform="translate(318.95125 142.067469) scale(0.11 -0.11)">
      <use xlink:href="#DejaVuSans-50"/>
      <use xlink:href="#DejaVuSans-41" x="53.927734"/>
      <use xlink:href="#DejaVuSans-54" x="114.585938"/>
      <use xlink:href="#DejaVuSans-54" x="173.919922"/>
      <use xlink:href="#DejaVuSans-45" x="235.003906"/>
      <use xlink:href="#DejaVuSans-52" x="298.1875"/>
      <use xlink:href="#DejaVuSans-4e" x="367.669922"/>
      <use xlink:href="#DejaVuSans-53" x="442.474609"/>
      <use xlink:href="#DejaVuSans-5f" x="505.951172"/>
      <use xlink:href="#DejaVuSans-53" x="555.951172"/>
      <use xlink:href="#DejaVuSans-49" x="619.427734"/>
      <use xlink:href="#DejaVuSans-5a" x="648.919922"/>
      <use xlink:href="#DejaVuSans-45" x="717.425781"/>
     </g>
    </g>
    <g id="line2d_24">
     <defs>
      <path id="mffb9333336" d="M 0 2.12132 
C 0.562581 2.12132 1.102195 1.897805 1.5 1.5 
C 1.897805 1.102195 2.12132 0.562581 2.12132 0 
C 2.12132 -0.562581 1.897805 -1.102195 1.5 -1.5 
C 1.102195 -1.897805 0.562581 -2.12132 0 -2.12132 
C -0.562581 -2.12132 -1.102195 -1.897805 -1.5 -1.5 
C -1.897805 -1.102195 -2.12132 -0.562581 -2.12132 0 
C -2.12132 0.562581 -1.897805 1.102195 -1.5 1.5 
C -1.102195 1.897805 -0.562581 2.12132 0 2.12132 
z
" style="stroke: #ffffff; stroke-width: 0.339411"/>
     </defs>
     <g>
      <use xlink:href="#mffb9333336" x="299.15125" y="154.669344" style="fill: #333333; stroke: #ffffff; stroke-width: 0.339411"/>
     </g>
    </g>
    <g id="text_21">
     <!-- 4 -->
     <g style="fill: #262626" transform="translate(318.95125 158.519344) scale(0.11 -0.11)">
      <use xlink:href="#DejaVuSans-34"/>
     </g>
    </g>
   </g>
  </g>
 </g>
 <defs>
  <clipPath id="pc63ef13067">
   <rect x="57.6" y="41.472" width="357.12" height="266.112"/>
  </clipPath>
 </defs>
</svg>
